<?xml version="1.0" encoding="utf-8" standalone="no"?>
<!DOCTYPE svg PUBLIC "-//W3C//DTD SVG 1.1//EN"
  "http://www.w3.org/Graphics/SVG/1.1/DTD/svg11.dtd">
<!-- Created with matplotlib (http://matplotlib.org/) -->
<svg height="408pt" version="1.1" viewBox="0 0 568 408" width="568pt" xmlns="http://www.w3.org/2000/svg" xmlns:xlink="http://www.w3.org/1999/xlink">
 <defs>
  <style type="text/css">
*{stroke-linecap:butt;stroke-linejoin:round;}
  </style>
 </defs>
 <g id="figure_1">
  <g id="patch_1">
   <path d="
M0 408.169
L568.682 408.169
L568.682 0
L0 0
z
" style="fill:#ffffff;"/>
  </g>
  <g id="axes_1">
   <g id="patch_2">
    <path d="
M56.97 368.742
L503.37 368.742
L503.37 23.1417
L56.97 23.1417
z
" style="fill:#ffffff;"/>
   </g>
   <g id="line2d_1">
    <path clip-path="url(#p5c957dd754)" d="
M56.97 368.742
L57.6396 368.149
L57.9967 368.051
L58.1753 368.001
L58.5324 367.902
L58.9342 367.606
L59.2466 367.507
L59.5145 367.359
L59.7377 367.261
L60.2287 366.866
L60.4073 366.767
L60.7198 366.569
L60.8983 366.471
L61.3447 366.125
L61.6572 366.026
L61.925 365.878
L62.2822 365.779
L62.5054 365.681
L62.7286 365.582
L63.3535 365.039
L63.5321 364.94
L64.1124 364.446
L64.6034 364.348
L65.0945 363.953
L65.4516 363.854
L65.898 363.508
L66.2105 363.41
L66.7908 362.916
L66.9694 362.817
L67.5943 362.274
L67.7729 362.175
L68.2193 361.83
L68.3532 361.731
L68.5764 361.632
L68.755 361.534
L69.1121 361.287
L69.3353 361.188
L69.9602 360.645
L70.3174 360.546
L70.6745 360.299
L70.8977 360.2
L71.2548 359.954
L71.4334 359.855
L71.9244 359.46
L72.0583 359.361
L72.4154 359.114
L72.6833 359.016
L73.0404 358.769
L73.219 358.67
L73.8886 358.078
L74.0225 357.979
L74.3796 357.732
L74.5135 357.633
L75.0492 357.189
L75.317 357.09
L75.9866 356.498
L76.2991 356.399
L77.3705 355.362
L77.549 355.263
L77.8169 355.115
L77.9508 355.016
L78.3079 354.77
L78.4865 354.671
L78.9775 354.276
L79.1114 354.177
L79.4686 353.93
L79.8257 353.832
L80.1382 353.634
L80.3614 353.535
L81.0756 352.894
L81.2095 352.795
L81.6559 352.449
L81.8791 352.35
L82.5487 351.758
L82.7273 351.659
L82.9505 351.56
L83.129 351.462
L83.6647 351.017
L83.8433 350.919
L84.245 350.622
L84.379 350.524
L84.9146 350.079
L85.1378 349.981
L86.0306 349.141
L86.1646 349.043
L86.7895 348.499
L86.9681 348.401
L87.2359 348.253
L87.3698 348.154
L87.8609 347.759
L88.218 347.66
L88.5751 347.413
L88.709 347.315
L89.2001 346.92
L89.4233 346.821
L89.8697 346.475
L90.0482 346.376
L90.45 346.08
L90.5839 345.982
L91.2089 345.438
L91.3428 345.34
L91.7446 345.043
L91.8785 344.945
L92.2802 344.648
L92.4588 344.55
L92.9052 344.204
L93.0838 344.105
L93.3962 343.908
L93.5302 343.809
L94.2444 343.167
L94.423 343.069
L94.7801 342.822
L95.0033 342.723
L95.4943 342.328
L95.7175 342.229
L96.1639 341.884
L96.4764 341.785
L96.6996 341.686
L96.9228 341.587
L97.8156 340.748
L97.9942 340.649
L98.6191 340.106
L98.7977 340.008
L99.2887 339.613
L99.4673 339.514
L100.048 339.02
L100.226 338.921
L101.03 338.181
L101.208 338.082
L102.28 337.045
L102.592 336.947
L102.949 336.7
L103.128 336.601
L103.396 336.453
L103.619 336.354
L104.021 336.058
L104.333 335.959
L104.958 335.416
L105.181 335.317
L105.985 334.577
L106.119 334.478
L106.744 333.935
L106.922 333.836
L107.547 333.293
L107.86 333.194
L108.217 332.947
L108.395 332.849
L108.797 332.552
L108.976 332.454
L109.422 332.108
L109.69 332.009
L110.315 331.466
L110.85 331.368
L111.163 331.17
L111.386 331.071
L111.788 330.775
L111.966 330.676
L112.279 330.479
L112.502 330.38
L113.127 329.837
L113.306 329.738
L114.02 329.096
L114.243 328.998
L114.69 328.652
L114.868 328.553
L115.225 328.307
L115.359 328.208
L115.85 327.813
L115.984 327.714
L116.297 327.517
L116.43 327.418
L117.189 326.727
L117.323 326.628
L117.904 326.134
L118.038 326.035
L118.35 325.838
L118.573 325.739
L119.555 324.801
L119.778 324.702
L120.136 324.456
L120.359 324.357
L120.761 324.061
L120.984 323.962
L121.252 323.814
L121.43 323.715
L121.787 323.468
L121.966 323.369
L122.323 323.123
L122.591 323.024
L122.814 322.925
L122.948 322.826
L123.35 322.53
L123.528 322.431
L124.019 322.036
L124.198 321.938
L124.555 321.691
L124.734 321.592
L125.18 321.246
L125.537 321.148
L125.939 320.851
L126.162 320.753
L126.653 320.358
L126.787 320.259
L127.189 319.963
L127.546 319.864
L127.814 319.716
L127.992 319.617
L128.349 319.37
L128.483 319.272
L128.751 319.123
L129.153 319.025
L129.822 318.432
L130.001 318.334
L130.537 317.889
L130.671 317.79
L131.072 317.494
L131.206 317.395
L131.742 316.951
L131.921 316.852
L132.412 316.457
L132.635 316.359
L133.081 316.013
L133.304 315.914
L133.572 315.766
L133.751 315.667
L134.153 315.371
L134.376 315.272
L134.867 314.878
L135.001 314.779
L135.447 314.433
L135.626 314.334
L135.804 314.285
L135.983 314.186
L136.206 314.088
L136.34 313.989
L136.697 313.742
L136.965 313.643
L137.411 313.298
L137.634 313.199
L137.947 313.001
L138.259 312.903
L138.572 312.705
L138.795 312.606
L139.242 312.261
L139.375 312.162
L140 311.619
L140.179 311.52
L140.759 311.027
L140.893 310.928
L141.116 310.829
L141.34 310.73
L141.92 310.237
L142.322 310.138
L143.036 309.496
L143.304 309.397
L143.795 309.002
L143.929 308.904
L144.33 308.607
L144.688 308.509
L144.955 308.36
L145.179 308.262
L145.848 307.669
L146.027 307.571
L146.429 307.274
L146.607 307.176
L147.411 306.435
L147.678 306.336
L148.125 305.991
L148.259 305.892
L148.527 305.744
L148.661 305.645
L149.241 305.151
L149.375 305.053
L149.955 304.559
L150.223 304.46
L151.071 303.67
L151.294 303.571
L151.785 303.176
L151.964 303.078
L152.41 302.732
L152.544 302.633
L152.767 302.535
L152.946 302.436
L153.169 302.337
L153.482 302.238
L153.928 301.893
L154.151 301.794
L154.508 301.547
L154.687 301.448
L155.044 301.202
L155.267 301.103
L155.535 300.955
L155.848 300.856
L156.428 300.362
L156.651 300.264
L157.098 299.918
L157.276 299.819
L157.812 299.375
L157.946 299.276
L158.571 298.733
L158.749 298.634
L159.151 298.338
L159.374 298.239
L160.178 297.499
L160.446 297.4
L160.937 297.005
L161.07 296.906
L161.606 296.462
L161.829 296.363
L162.633 295.623
L162.945 295.524
L163.481 295.08
L163.615 294.981
L164.151 294.536
L164.374 294.438
L164.597 294.339
L164.731 294.24
L165.177 293.895
L165.356 293.796
L165.713 293.549
L165.847 293.45
L166.338 293.055
L166.561 292.957
L166.918 292.71
L167.142 292.611
L167.677 292.167
L168.034 292.068
L168.302 291.92
L168.525 291.821
L169.15 291.278
L169.374 291.179
L169.731 290.932
L169.865 290.834
L171.516 289.155
L171.739 289.056
L172.052 288.859
L172.275 288.76
L172.588 288.563
L172.811 288.464
L173.123 288.266
L173.257 288.168
L173.882 287.624
L174.016 287.526
L174.418 287.23
L174.552 287.131
L174.998 286.785
L175.132 286.686
L176.025 285.847
L176.248 285.748
L176.561 285.551
L176.784 285.452
L177.141 285.205
L177.319 285.107
L177.81 284.712
L177.989 284.613
L178.525 284.168
L178.748 284.07
L179.06 283.872
L179.284 283.774
L179.819 283.329
L180.042 283.23
L180.534 282.835
L180.846 282.737
L181.292 282.391
L181.516 282.292
L181.873 282.046
L182.096 281.947
L182.676 281.453
L182.81 281.354
L183.257 281.009
L183.435 280.91
L183.837 280.614
L184.015 280.515
L184.551 280.071
L184.73 279.972
L185.622 279.133
L185.756 279.034
L186.069 278.836
L186.381 278.738
L186.783 278.441
L186.917 278.343
L187.587 277.75
L187.765 277.651
L188.301 277.207
L188.569 277.108
L189.685 276.022
L189.997 275.923
L190.488 275.528
L190.667 275.43
L191.158 275.035
L191.381 274.936
L192.14 274.245
L192.363 274.146
L192.676 273.949
L192.943 273.85
L193.792 273.06
L194.015 272.961
L194.55 272.517
L194.684 272.418
L194.908 272.319
L195.22 272.221
L195.666 271.875
L195.8 271.776
L196.202 271.48
L196.425 271.381
L196.827 271.085
L197.095 270.986
L197.541 270.641
L197.898 270.542
L198.256 270.295
L198.39 270.196
L199.327 269.308
L199.595 269.209
L200.175 268.715
L200.398 268.616
L200.889 268.222
L201.068 268.123
L201.827 267.432
L202.005 267.333
L202.362 267.086
L202.541 266.987
L203.077 266.543
L203.211 266.444
L203.925 265.802
L204.148 265.704
L204.818 265.111
L205.041 265.012
L205.309 264.864
L205.532 264.766
L206.112 264.272
L206.425 264.173
L206.782 263.926
L206.96 263.827
L207.228 263.679
L207.496 263.581
L207.719 263.482
L207.942 263.383
L208.791 262.593
L209.192 262.494
L209.862 261.902
L210.041 261.803
L210.532 261.408
L210.799 261.31
L211.246 260.964
L211.38 260.865
L211.96 260.371
L212.317 260.273
L212.674 260.026
L212.853 259.927
L213.076 259.828
L213.21 259.73
L213.433 259.631
L213.612 259.532
L214.103 259.137
L214.281 259.038
L215.04 258.347
L215.263 258.248
L215.71 257.903
L215.888 257.804
L216.603 257.162
L216.737 257.064
L217.004 256.915
L217.272 256.817
L217.897 256.274
L218.031 256.175
L218.478 255.829
L218.745 255.731
L219.326 255.237
L219.46 255.138
L219.817 254.891
L220.085 254.792
L220.442 254.546
L220.754 254.447
L221.156 254.151
L221.379 254.052
L221.736 253.805
L221.915 253.706
L222.629 253.064
L222.808 252.966
L223.254 252.62
L223.522 252.521
L223.968 252.176
L224.281 252.077
L224.593 251.88
L224.772 251.781
L225.441 251.188
L226.022 251.09
L226.781 250.398
L226.959 250.3
L227.584 249.757
L227.763 249.658
L228.522 248.967
L228.789 248.868
L229.102 248.67
L229.236 248.572
L229.593 248.325
L229.905 248.226
L230.396 247.831
L230.575 247.732
L231.111 247.288
L231.423 247.189
L231.825 246.893
L232.003 246.794
L232.986 245.856
L233.119 245.758
L233.655 245.313
L233.789 245.214
L234.28 244.819
L234.548 244.721
L234.771 244.622
L235.039 244.523
L235.307 244.375
L235.485 244.276
L235.842 244.03
L235.976 243.931
L236.423 243.585
L236.601 243.486
L237.003 243.19
L237.271 243.091
L237.673 242.795
L237.851 242.696
L238.432 242.203
L238.566 242.104
L238.744 242.055
L239.057 241.956
L239.682 241.413
L239.905 241.314
L240.44 240.87
L240.574 240.771
L241.021 240.425
L241.155 240.327
L241.869 239.685
L242.137 239.586
L242.315 239.537
L242.717 239.438
L243.03 239.24
L243.208 239.142
L243.431 239.043
L243.61 238.944
L244.413 238.204
L244.637 238.105
L245.128 237.71
L245.262 237.611
L245.663 237.315
L245.797 237.216
L245.976 237.167
L246.467 237.068
L246.869 236.772
L247.047 236.673
L247.538 236.278
L247.761 236.179
L247.985 236.081
L248.118 235.982
L248.52 235.686
L248.654 235.587
L249.502 234.797
L249.636 234.698
L250.083 234.353
L250.261 234.254
L250.752 233.859
L250.886 233.76
L251.333 233.415
L251.511 233.316
L251.734 233.217
L252.047 233.118
L252.716 232.526
L253.029 232.427
L253.386 232.18
L253.832 232.082
L254.413 231.588
L254.547 231.489
L255.216 230.897
L255.439 230.798
L255.975 230.354
L256.243 230.255
L257.091 229.465
L257.27 229.366
L257.895 228.823
L258.029 228.724
L258.296 228.576
L258.475 228.478
L259.145 227.885
L259.412 227.786
L259.725 227.589
L259.859 227.49
L260.082 227.391
L260.261 227.293
L260.796 226.848
L260.975 226.75
L261.287 226.552
L261.421 226.453
L262.002 225.96
L262.359 225.861
L262.805 225.515
L263.028 225.416
L263.385 225.17
L263.609 225.071
L264.144 224.627
L264.412 224.528
L264.948 224.083
L265.082 223.985
L265.528 223.639
L265.796 223.54
L266.019 223.442
L266.153 223.343
L266.466 223.145
L266.644 223.047
L267.269 222.504
L267.403 222.405
L267.805 222.109
L268.028 222.01
L268.474 221.664
L268.653 221.566
L269.01 221.319
L269.144 221.22
L269.858 220.578
L269.992 220.479
L271.063 219.443
L271.331 219.344
L272.001 218.751
L272.179 218.653
L272.715 218.208
L272.983 218.11
L273.385 217.813
L273.519 217.715
L273.742 217.616
L274.01 217.517
L274.278 217.369
L274.59 217.27
L275.036 216.925
L275.215 216.826
L275.974 216.135
L276.108 216.036
L276.331 215.937
L276.554 215.838
L276.956 215.542
L277.179 215.443
L277.67 215.048
L277.938 214.95
L279.054 213.864
L279.233 213.765
L279.991 213.074
L280.259 212.975
L280.706 212.629
L280.84 212.531
L281.331 212.136
L281.509 212.037
L282.045 211.592
L282.268 211.494
L282.536 211.346
L282.714 211.247
L283.429 210.605
L283.83 210.506
L284.188 210.259
L284.366 210.161
L285.08 209.519
L285.214 209.42
L286.33 208.334
L286.509 208.235
L287 207.84
L287.134 207.742
L287.937 207.001
L288.25 206.902
L288.652 206.606
L288.83 206.507
L289.143 206.31
L289.41 206.211
L290.571 205.075
L290.705 204.977
L291.107 204.68
L291.419 204.582
L291.776 204.335
L291.91 204.236
L292.625 203.594
L292.937 203.496
L293.16 203.397
L293.339 203.298
L293.919 202.804
L294.098 202.706
L294.589 202.311
L294.723 202.212
L294.946 202.113
L295.124 202.014
L295.749 201.471
L295.973 201.373
L296.24 201.224
L296.374 201.126
L296.731 200.879
L296.955 200.78
L297.535 200.286
L297.758 200.188
L297.981 200.089
L298.115 199.99
L298.696 199.496
L298.83 199.398
L299.187 199.151
L299.321 199.052
L300.124 198.312
L300.258 198.213
L300.972 197.571
L301.374 197.472
L301.731 197.225
L301.91 197.127
L302.401 196.732
L302.535 196.633
L303.115 196.139
L303.338 196.04
L303.829 195.646
L304.097 195.547
L304.41 195.349
L304.722 195.251
L305.079 195.004
L305.258 194.905
L306.24 193.967
L306.463 193.868
L306.909 193.523
L307.043 193.424
L307.445 193.128
L307.624 193.029
L307.936 192.831
L308.115 192.733
L308.606 192.338
L308.784 192.239
L309.365 191.745
L309.543 191.646
L309.856 191.449
L310.079 191.35
L310.614 190.906
L310.793 190.807
L311.061 190.659
L311.329 190.56
L311.954 190.017
L312.222 189.918
L312.891 189.326
L313.114 189.227
L313.695 188.734
L313.873 188.635
L314.141 188.487
L314.275 188.388
L314.632 188.141
L314.766 188.042
L315.168 187.746
L315.302 187.647
L315.793 187.252
L316.016 187.154
L316.418 186.857
L316.552 186.759
L316.998 186.413
L317.177 186.314
L317.534 186.067
L317.712 185.969
L318.114 185.672
L318.248 185.574
L318.516 185.426
L318.694 185.327
L319.319 184.784
L319.453 184.685
L320.034 184.191
L320.257 184.093
L320.658 183.796
L321.06 183.698
L321.641 183.204
L321.864 183.105
L322.087 183.006
L322.221 182.908
L322.667 182.562
L322.801 182.463
L323.114 182.266
L323.337 182.167
L323.694 181.92
L323.873 181.822
L324.096 181.723
L324.274 181.624
L324.765 181.229
L324.944 181.13
L325.301 180.883
L325.48 180.785
L325.792 180.587
L326.06 180.488
L326.372 180.291
L326.64 180.192
L326.997 179.945
L327.221 179.847
L327.444 179.748
L327.712 179.649
L328.649 178.76
L328.783 178.662
L329.229 178.316
L329.586 178.217
L330.167 177.724
L330.345 177.625
L330.747 177.329
L330.881 177.23
L331.194 177.032
L331.417 176.934
L331.818 176.638
L332.042 176.539
L332.443 176.243
L332.622 176.144
L333.381 175.453
L333.604 175.354
L334.184 174.86
L334.318 174.761
L334.631 174.564
L334.765 174.465
L336.059 173.182
L336.193 173.083
L336.684 172.688
L336.863 172.589
L337.22 172.342
L337.443 172.243
L338.023 171.75
L338.291 171.651
L339.095 170.91
L339.407 170.812
L339.809 170.515
L340.255 170.417
L340.97 169.775
L341.148 169.676
L341.818 169.084
L342.086 168.985
L342.621 168.541
L342.845 168.442
L343.291 168.096
L343.514 167.998
L344.005 167.603
L344.184 167.504
L345.3 166.418
L345.568 166.319
L345.835 166.171
L346.059 166.072
L346.326 165.924
L346.594 165.825
L347.309 165.183
L347.576 165.085
L348.246 164.492
L348.469 164.393
L348.96 163.998
L349.273 163.9
L349.942 163.307
L350.121 163.208
L350.523 162.912
L350.746 162.814
L351.906 161.678
L352.04 161.579
L352.531 161.184
L352.71 161.086
L353.201 160.691
L353.469 160.592
L353.96 160.197
L354.183 160.098
L354.674 159.703
L354.853 159.604
L355.388 159.16
L355.522 159.061
L356.237 158.419
L356.415 158.321
L356.862 157.975
L356.995 157.876
L357.353 157.63
L357.576 157.531
L357.933 157.284
L358.067 157.185
L358.424 156.938
L358.692 156.84
L359.272 156.346
L359.451 156.247
L359.763 156.05
L360.12 155.951
L360.879 155.26
L361.058 155.161
L361.37 154.963
L361.593 154.865
L361.95 154.618
L362.174 154.519
L363.022 153.729
L363.29 153.63
L363.558 153.482
L363.781 153.384
L364.406 152.84
L364.763 152.742
L365.298 152.297
L365.477 152.199
L365.879 151.902
L366.236 151.804
L366.638 151.507
L366.861 151.409
L367.352 151.014
L367.486 150.915
L368.423 150.026
L368.646 149.928
L369.004 149.681
L369.316 149.582
L369.673 149.335
L369.896 149.236
L370.298 148.94
L370.521 148.841
L371.057 148.397
L371.28 148.298
L371.727 147.953
L371.905 147.854
L372.753 147.064
L372.977 146.965
L373.378 146.669
L373.557 146.57
L374.003 146.225
L374.226 146.126
L374.718 145.731
L374.851 145.632
L375.476 145.089
L375.61 144.99
L376.191 144.497
L376.325 144.398
L376.682 144.151
L376.816 144.052
L377.842 143.065
L378.021 142.966
L378.557 142.522
L378.735 142.423
L379.271 141.979
L379.583 141.88
L380.298 141.238
L380.789 141.139
L381.19 140.843
L381.369 140.744
L381.681 140.547
L381.905 140.448
L382.44 140.004
L382.574 139.905
L382.931 139.658
L383.154 139.56
L383.556 139.263
L383.735 139.165
L384.137 138.868
L384.36 138.77
L385.208 137.98
L385.342 137.881
L385.833 137.486
L386.011 137.387
L386.369 137.14
L386.547 137.042
L387.172 136.499
L387.395 136.4
L387.976 135.906
L388.243 135.807
L388.645 135.511
L388.868 135.412
L389.181 135.215
L389.315 135.116
L389.895 134.622
L390.118 134.524
L390.743 133.981
L390.922 133.882
L391.145 133.783
L391.279 133.684
L391.681 133.388
L391.993 133.289
L392.306 133.092
L392.529 132.993
L393.02 132.598
L393.198 132.499
L394.047 131.71
L394.181 131.611
L394.761 131.117
L394.939 131.018
L395.743 130.278
L395.966 130.179
L396.457 129.784
L396.68 129.685
L397.038 129.438
L397.261 129.34
L397.975 128.698
L398.154 128.599
L398.511 128.352
L398.689 128.254
L399.225 127.809
L399.537 127.71
L400.296 127.019
L400.43 126.92
L400.966 126.476
L401.144 126.377
L401.546 126.081
L401.725 125.982
L402.26 125.538
L402.528 125.439
L402.93 125.143
L403.153 125.044
L403.823 124.452
L404.046 124.353
L404.671 123.81
L404.85 123.711
L405.296 123.366
L405.474 123.267
L406.01 122.823
L406.367 122.724
L406.769 122.428
L406.992 122.329
L407.528 121.885
L407.751 121.786
L408.108 121.539
L408.287 121.44
L408.555 121.292
L408.733 121.193
L409.001 121.045
L409.18 120.947
L409.671 120.552
L409.849 120.453
L410.251 120.157
L410.385 120.058
L410.921 119.614
L411.099 119.515
L411.769 118.922
L411.903 118.824
L412.215 118.626
L412.483 118.527
L412.885 118.231
L413.019 118.132
L413.644 117.589
L413.822 117.491
L414.179 117.244
L414.358 117.145
L414.626 116.997
L414.76 116.898
L415.251 116.503
L415.518 116.404
L415.965 116.059
L416.188 115.96
L416.501 115.763
L416.634 115.664
L416.947 115.466
L417.259 115.368
L417.617 115.121
L417.795 115.022
L418.331 114.578
L418.509 114.479
L418.956 114.133
L419.09 114.035
L419.67 113.541
L419.893 113.442
L420.34 113.096
L420.474 112.998
L420.831 112.751
L421.054 112.652
L421.322 112.504
L421.5 112.405
L421.813 112.208
L421.947 112.109
L422.482 111.665
L422.616 111.566
L422.929 111.368
L423.197 111.27
L423.911 110.628
L424.179 110.529
L424.58 110.233
L424.848 110.134
L425.116 109.986
L425.295 109.887
L425.786 109.492
L425.964 109.394
L426.321 109.147
L426.5 109.048
L426.723 108.949
L426.902 108.851
L427.17 108.702
L427.348 108.604
L427.928 108.11
L428.107 108.011
L428.33 107.912
L428.598 107.814
L429.134 107.369
L429.402 107.271
L429.803 106.974
L429.982 106.876
L430.473 106.481
L430.696 106.382
L431.455 105.691
L431.678 105.592
L432.303 105.049
L432.437 104.95
L432.794 104.703
L432.973 104.605
L433.508 104.16
L433.642 104.062
L434.044 103.765
L434.312 103.667
L434.714 103.37
L434.892 103.272
L435.249 103.025
L435.651 102.926
L436.41 102.235
L436.589 102.136
L437.169 101.642
L437.303 101.544
L437.928 101
L438.106 100.902
L438.91 100.161
L439.133 100.062
L439.356 99.9637
L439.579 99.8649
L439.847 99.7168
L440.16 99.6181
L441.097 98.7294
L441.231 98.6307
L441.499 98.4825
L441.722 98.3838
L442.213 97.9888
L442.347 97.8901
L442.704 97.6432
L442.883 97.5445
L443.642 96.8533
L443.82 96.7545
L444.177 96.5077
L444.356 96.4089
L444.802 96.0633
L444.936 95.9646
L445.115 95.9152
L445.427 95.8165
L445.829 95.5203
L445.963 95.4215
L446.633 94.8291
L446.811 94.7303
L447.481 94.1379
L447.838 94.0391
L448.374 93.5948
L448.507 93.496
L448.909 93.1998
L449.132 93.1011
L449.356 93.0023
L449.534 92.9036
L450.07 92.4592
L450.338 92.3605
L450.65 92.163
L450.873 92.0643
L451.275 91.768
L451.409 91.6693
L451.677 91.5212
L451.855 91.4224
L452.525 90.83
L452.793 90.7312
L453.329 90.2869
L453.507 90.1881
L454.132 89.6451
L454.355 89.5463
L454.802 89.2007
L454.98 89.102
L455.471 88.707
L455.694 88.6083
L456.007 88.4108
L456.364 88.312
L456.766 88.0158
L456.989 87.9171
L457.659 87.3246
L457.882 87.2259
L458.284 86.9296
L458.462 86.8309
L458.864 86.5347
L459.176 86.4359
L459.935 85.7447
L460.203 85.646
L460.56 85.3991
L460.739 85.3004
L461.23 84.9054
L461.364 84.8067
L461.587 84.7079
L461.721 84.6092
L461.989 84.4611
L462.257 84.3623
L462.882 83.8192
L463.015 83.7205
L463.417 83.4243
L463.551 83.3255
L463.998 82.9799
L464.131 82.8812
L464.622 82.4862
L464.801 82.3875
L465.247 82.0419
L465.515 81.9431
L466.006 81.5481
L466.14 81.4494
L466.542 81.1532
L466.721 81.0544
L467.078 80.8076
L467.346 80.7088
L467.613 80.5607
L467.747 80.462
L468.506 79.7708
L468.729 79.672
L469.354 79.1289
L469.578 79.0302
L469.979 78.734
L470.113 78.6352
L470.604 78.2403
L470.738 78.1415
L471.318 77.6478
L471.497 77.5491
L472.077 77.0553
L472.211 76.9566
L472.881 76.3641
L473.104 76.2654
L473.461 76.0185
L473.64 75.9198
L474.042 75.6236
L474.265 75.5248
L474.89 74.9817
L475.068 74.883
L475.425 74.6361
L475.604 74.5374
L475.961 74.2905
L476.274 74.1918
L476.675 73.8956
L476.854 73.7968
L477.791 72.9081
L477.97 72.8094
L478.461 72.4144
L478.639 72.3157
L478.997 72.0688
L479.264 71.9701
L479.889 71.427
L480.023 71.3283
L480.604 70.8345
L480.738 70.7358
L480.961 70.6371
L481.095 70.5383
L481.541 70.1927
L481.809 70.094
L482.121 69.8965
L482.3 69.7977
L482.791 69.4028
L482.97 69.304
L483.282 69.1065
L483.505 69.0078
L483.862 68.7609
L483.996 68.6622
L484.487 68.2672
L484.755 68.1685
L485.112 67.9216
L485.246 67.8229
L485.782 67.3785
L486.228 67.2798
L486.853 66.7367
L487.032 66.638
L487.657 66.0949
L487.88 65.9961
L488.237 65.7493
L488.371 65.6505
L488.773 65.3543
L488.996 65.2556
L489.799 64.515
L490.023 64.4163
L490.335 64.2188
L490.469 64.12
L491.139 63.5276
L491.317 63.4288
L491.987 62.8364
L492.121 62.7376
L492.567 62.392
L492.746 62.2933
L493.147 61.9971
L493.281 61.8983
L493.772 61.5033
L494.04 61.4046
L494.576 60.9603
L494.754 60.8615
L495.067 60.664
L495.246 60.5653
L495.692 60.2197
L495.915 60.1209
L496.183 59.9728
L496.406 59.8741
L496.719 59.6766
L496.942 59.5779
L497.388 59.2323
L497.656 59.1335
L498.102 58.7879
L498.236 58.6892
L498.683 58.3436
L498.817 58.2448
L499.129 58.0473
L499.442 57.9486
L499.754 57.7511
L499.933 57.6524
L500.468 57.208
L500.736 57.1093
L501.361 56.5662
L501.584 56.4675
L502.254 55.875
L502.433 55.7763
L502.879 55.4307
L503.102 55.3319
L503.37 55.1838
L503.37 55.1838" style="fill:none;stroke:#800080;stroke-linecap:square;"/>
   </g>
   <g id="line2d_2">
    <path clip-path="url(#p5c957dd754)" d="
M56.97 368.742
L59.9162 368.643
L60.0948 368.594
L62.55 368.495
L62.7286 368.446
L64.5142 368.347
L64.6927 368.297
L66.4783 368.199
L66.6569 368.149
L70.7191 368.051
L70.8977 368.001
L75.9866 367.902
L76.1652 367.853
L77.1026 367.754
L77.2812 367.705
L80.2274 367.606
L80.4506 367.507
L85.0932 367.409
L85.2718 367.359
L90.2268 367.261
L90.4054 367.211
L93.6194 367.112
L93.798 367.063
L97.8602 366.964
L98.0388 366.915
L118.484 366.816
L118.662 366.767
L121.252 366.668
L121.43 366.619
L127.144 366.52
L127.367 366.421
L131.072 366.323
L131.251 366.273
L133.483 366.174
L133.662 366.125
L140.134 366.026
L140.313 365.977
L144.063 365.878
L144.241 365.829
L153.348 365.73
L153.526 365.681
L160.535 365.582
L160.713 365.533
L171.65 365.434
L171.829 365.384
L180.534 365.286
L180.712 365.236
L191.158 365.138
L191.336 365.088
L196.961 364.99
L197.14 364.94
L200.175 364.841
L200.354 364.792
L207.184 364.693
L207.362 364.644
L212.674 364.545
L212.853 364.496
L214.371 364.397
L214.549 364.348
L218.835 364.249
L219.013 364.2
L220.397 364.101
L220.576 364.051
L225.843 363.953
L226.022 363.903
L235.307 363.805
L235.485 363.755
L240.708 363.656
L240.887 363.607
L244.458 363.508
L244.637 363.459
L247.806 363.36
L247.985 363.311
L251.6 363.212
L251.779 363.163
L259.055 363.064
L259.278 362.965
L260.484 362.867
L260.662 362.817
L262.046 362.718
L262.225 362.669
L271.242 362.57
L271.421 362.521
L281.063 362.422
L281.241 362.373
L285.08 362.274
L285.259 362.225
L291.776 362.126
L291.955 362.077
L298.606 361.978
L298.785 361.928
L305.124 361.83
L305.302 361.78
L311.016 361.682
L311.195 361.632
L317.802 361.534
L317.98 361.484
L321.016 361.385
L321.194 361.336
L323.694 361.237
L323.873 361.188
L327.042 361.089
L327.221 361.04
L327.444 360.941
L327.622 360.892
L331.908 360.793
L332.086 360.744
L340.032 360.645
L340.211 360.595
L348.648 360.497
L348.826 360.447
L354.005 360.349
L354.183 360.299
L358.647 360.2
L358.826 360.151
L365.656 360.052
L365.834 360.003
L369.048 359.904
L369.227 359.855
L374.182 359.756
L374.36 359.707
L378.11 359.608
L378.289 359.559
L379.539 359.46
L379.717 359.411
L380.967 359.312
L381.146 359.262
L386.681 359.164
L386.86 359.114
L395.832 359.016
L396.011 358.966
L399.002 358.867
L399.18 358.818
L406.724 358.719
L406.903 358.67
L412.037 358.571
L412.26 358.472
L416.143 358.374
L416.322 358.324
L422.304 358.226
L422.482 358.176
L428.152 358.078
L428.33 358.028
L434.49 357.929
L434.669 357.88
L439.222 357.781
L439.401 357.732
L439.847 357.633
L440.026 357.584
L441.454 357.485
L441.633 357.436
L444.802 357.337
L444.981 357.288
L446.722 357.189
L446.9 357.139
L449.668 357.041
L449.847 356.991
L453.462 356.893
L453.641 356.843
L456.096 356.744
L456.275 356.695
L464.31 356.596
L464.489 356.547
L476.497 356.448
L476.675 356.399
L481.764 356.3
L481.943 356.251
L490.067 356.152
L490.246 356.103
L495.781 356.004
L496.004 355.905
L497.21 355.806
L497.388 355.757
L501.852 355.658
L502.031 355.609
L503.37 355.51
L503.37 355.51" style="fill:none;stroke:#ffa500;stroke-linecap:square;"/>
   </g>
   <g id="line2d_3">
    <path clip-path="url(#p5c957dd754)" d="
M56.97 368.742
L57.5503 368.643
L57.9074 368.396
L58.086 368.297
L58.577 367.902
L58.8895 367.804
L59.2466 367.557
L59.4698 367.458
L59.827 367.211
L60.3626 367.112
L60.6751 366.915
L60.943 366.816
L61.1215 366.767
L61.3894 366.668
L61.6572 366.52
L61.7911 366.421
L62.2375 366.076
L62.4607 365.977
L62.7286 365.829
L63.2196 365.73
L63.4874 365.582
L64.1124 365.483
L64.5588 365.138
L65.0052 365.039
L65.3623 364.792
L65.5855 364.693
L65.8087 364.595
L65.9873 364.496
L66.2105 364.397
L66.7908 364.298
L67.014 364.2
L67.5943 364.101
L67.8622 363.953
L68.2193 363.854
L68.3978 363.805
L68.5318 363.706
L68.7996 363.558
L69.0674 363.459
L69.3799 363.262
L69.9602 363.163
L70.362 362.867
L70.6298 362.768
L70.8977 362.62
L71.2102 362.521
L71.478 362.373
L71.8798 362.274
L72.103 362.175
L72.3708 362.077
L72.6833 361.879
L72.9511 361.78
L73.219 361.632
L73.7993 361.534
L74.0225 361.435
L74.3796 361.336
L74.5582 361.287
L74.826 361.188
L75.0046 361.139
L75.1831 361.04
L75.451 360.892
L76.0759 360.793
L76.3438 360.645
L77.5937 360.546
L77.9062 360.349
L78.2633 360.25
L78.4865 360.151
L78.8436 360.052
L79.0668 359.954
L79.4239 359.855
L79.8703 359.509
L80.0489 359.411
L80.3167 359.262
L81.0756 359.164
L81.3881 358.966
L81.8345 358.867
L82.013 358.818
L82.6826 358.719
L83.0844 358.423
L83.6201 358.324
L83.8879 358.176
L84.1558 358.078
L84.379 357.979
L84.87 357.88
L85.1378 357.732
L85.9414 357.633
L86.1646 357.534
L86.7895 357.436
L87.102 357.238
L87.6823 357.139
L88.1287 356.794
L88.3966 356.695
L88.6644 356.547
L88.9769 356.448
L89.1554 356.399
L89.3786 356.3
L89.5572 356.251
L89.7804 356.152
L90.0482 356.004
L90.45 355.905
L90.6732 355.806
L91.2089 355.708
L91.3874 355.658
L91.7446 355.56
L92.0124 355.411
L92.3249 355.313
L92.5481 355.214
L92.9052 355.115
L93.1284 355.016
L93.3962 354.918
L93.5748 354.868
L94.2444 354.77
L94.5569 354.572
L94.8247 354.473
L95.0479 354.375
L95.4497 354.276
L95.7622 354.078
L96.0746 353.98
L96.4318 353.733
L96.6996 353.634
L96.9674 353.486
L97.771 353.387
L97.9942 353.288
L98.3513 353.19
L98.5298 353.14
L98.9316 353.042
L99.1994 352.894
L99.6458 352.795
L99.869 352.696
L100.092 352.597
L100.271 352.548
L100.985 352.449
L101.253 352.301
L101.744 352.202
L101.922 352.153
L102.369 352.054
L102.681 351.857
L102.949 351.758
L103.172 351.659
L103.351 351.56
L103.663 351.363
L103.976 351.264
L104.378 350.968
L104.824 350.869
L105.137 350.672
L105.628 350.573
L105.806 350.524
L106.52 350.425
L106.788 350.277
L107.056 350.178
L107.279 350.079
L107.636 349.981
L107.949 349.783
L108.351 349.684
L108.663 349.487
L109.199 349.388
L109.645 349.043
L110.092 348.944
L110.27 348.894
L110.404 348.796
L110.984 348.302
L111.252 348.203
L111.475 348.104
L111.699 348.006
L111.966 347.858
L112.234 347.759
L112.547 347.561
L112.859 347.463
L113.038 347.413
L113.663 347.315
L113.841 347.265
L114.02 347.166
L114.288 347.018
L114.556 346.92
L114.823 346.771
L115.136 346.673
L115.359 346.574
L115.761 346.475
L115.984 346.376
L116.252 346.278
L116.52 346.13
L117.189 346.031
L117.413 345.932
L117.904 345.833
L118.171 345.685
L118.975 345.587
L119.243 345.438
L119.689 345.34
L119.868 345.29
L120.091 345.192
L120.359 345.043
L120.627 344.945
L120.85 344.846
L121.118 344.747
L121.341 344.648
L121.609 344.55
L121.921 344.352
L122.144 344.254
L122.412 344.105
L122.635 344.007
L122.948 343.809
L123.26 343.71
L123.528 343.562
L123.885 343.464
L124.109 343.365
L124.466 343.266
L124.734 343.118
L125.001 343.019
L125.314 342.822
L125.492 342.723
L125.76 342.575
L126.028 342.476
L126.251 342.377
L126.608 342.279
L126.832 342.18
L127.278 342.081
L127.635 341.834
L127.814 341.736
L128.037 341.637
L128.305 341.538
L128.528 341.439
L128.751 341.341
L129.153 341.044
L129.689 340.946
L129.956 340.798
L130.447 340.699
L130.671 340.6
L130.983 340.501
L131.162 340.452
L131.697 340.353
L131.965 340.205
L132.456 340.106
L132.724 339.958
L133.081 339.859
L133.349 339.711
L133.572 339.613
L133.84 339.464
L134.153 339.366
L134.376 339.267
L134.822 339.168
L135.045 339.07
L135.402 338.971
L135.894 338.576
L136.161 338.477
L136.429 338.329
L136.742 338.23
L137.01 338.082
L137.277 337.983
L137.501 337.885
L137.768 337.786
L138.259 337.391
L138.483 337.292
L138.795 337.095
L139.152 336.996
L139.375 336.897
L139.911 336.798
L140.134 336.7
L140.759 336.601
L141.027 336.453
L141.161 336.354
L141.384 336.255
L141.875 336.157
L142.322 335.811
L142.991 335.712
L143.348 335.465
L143.706 335.367
L143.929 335.268
L144.33 335.169
L144.822 334.774
L145.134 334.675
L145.357 334.577
L145.848 334.478
L146.071 334.379
L146.339 334.28
L146.607 334.132
L147.098 334.034
L147.277 333.984
L147.589 333.886
L147.946 333.639
L148.348 333.54
L148.616 333.392
L149.196 333.293
L149.419 333.194
L149.777 333.096
L150.044 332.947
L150.714 332.849
L150.937 332.75
L151.205 332.651
L151.428 332.552
L151.785 332.454
L152.009 332.355
L152.321 332.256
L152.544 332.158
L152.723 332.059
L152.991 331.911
L153.125 331.812
L153.482 331.565
L153.928 331.466
L154.151 331.368
L154.33 331.269
L154.553 331.17
L154.91 331.071
L155.267 330.824
L155.446 330.726
L155.848 330.43
L156.249 330.331
L156.473 330.232
L156.919 330.133
L157.276 329.886
L157.767 329.788
L157.99 329.689
L158.258 329.59
L158.437 329.541
L158.838 329.442
L159.106 329.294
L159.33 329.195
L159.508 329.146
L160.133 329.047
L160.49 328.8
L160.937 328.702
L161.115 328.652
L161.472 328.553
L161.74 328.405
L162.053 328.307
L162.231 328.257
L162.678 328.158
L162.99 327.961
L163.347 327.862
L163.57 327.763
L164.106 327.665
L164.418 327.467
L164.552 327.368
L164.776 327.27
L165.088 327.171
L165.267 327.122
L165.445 327.023
L165.668 326.924
L166.204 326.825
L166.427 326.727
L166.695 326.628
L167.097 326.332
L167.588 326.233
L168.034 325.887
L168.258 325.789
L168.57 325.591
L169.106 325.492
L169.463 325.246
L169.731 325.147
L169.909 325.097
L170.891 324.999
L171.07 324.949
L171.784 324.851
L172.097 324.653
L172.32 324.554
L172.722 324.258
L173.079 324.159
L173.302 324.061
L173.614 323.962
L173.793 323.912
L174.195 323.814
L174.462 323.666
L174.73 323.567
L174.909 323.518
L175.846 323.419
L176.203 323.172
L176.382 323.073
L176.65 322.925
L176.962 322.826
L177.23 322.678
L177.677 322.579
L177.944 322.431
L178.346 322.333
L178.659 322.135
L179.06 322.036
L179.328 321.888
L179.775 321.79
L180.087 321.592
L180.444 321.493
L180.712 321.345
L181.025 321.246
L181.337 321.049
L181.56 320.95
L181.828 320.802
L182.051 320.703
L182.23 320.654
L182.676 320.555
L182.899 320.456
L183.257 320.358
L183.48 320.259
L183.658 320.16
L183.882 320.062
L184.506 319.963
L184.774 319.815
L185.221 319.716
L185.399 319.667
L185.98 319.568
L186.56 319.074
L187.051 318.975
L187.274 318.877
L187.81 318.778
L187.988 318.728
L188.301 318.63
L188.613 318.432
L189.595 318.334
L189.997 318.037
L190.444 317.939
L190.711 317.79
L191.113 317.692
L191.381 317.544
L191.738 317.445
L191.917 317.395
L192.274 317.297
L192.542 317.149
L192.72 317.05
L192.988 316.902
L193.747 316.803
L194.015 316.655
L194.417 316.556
L194.64 316.457
L194.863 316.359
L195.265 316.062
L195.533 315.964
L195.756 315.865
L196.068 315.766
L196.381 315.569
L196.782 315.47
L197.05 315.322
L197.497 315.223
L197.898 314.927
L198.122 314.828
L198.345 314.729
L199.282 314.631
L199.595 314.433
L199.907 314.334
L200.086 314.285
L200.443 314.186
L200.666 314.088
L201.157 313.989
L201.336 313.939
L201.827 313.841
L202.05 313.742
L202.318 313.643
L202.63 313.446
L203.077 313.347
L203.255 313.298
L203.791 313.199
L204.103 313.001
L204.728 312.903
L205.041 312.705
L205.219 312.606
L205.487 312.458
L205.71 312.36
L205.889 312.31
L206.202 312.211
L206.514 312.014
L206.782 311.915
L207.005 311.816
L207.228 311.718
L207.675 311.372
L207.809 311.273
L208.032 311.175
L208.791 311.076
L209.282 310.681
L209.996 310.582
L210.174 310.533
L210.532 310.434
L210.889 310.187
L211.246 310.088
L211.424 310.039
L211.826 309.94
L212.273 309.595
L212.63 309.496
L212.853 309.397
L213.076 309.299
L213.299 309.2
L213.433 309.101
L213.656 309.002
L213.924 308.904
L214.147 308.805
L215.04 308.706
L215.308 308.558
L215.665 308.459
L215.933 308.311
L216.29 308.212
L216.469 308.163
L216.826 308.064
L217.138 307.867
L217.495 307.768
L217.674 307.719
L218.076 307.62
L218.254 307.571
L218.567 307.472
L218.835 307.324
L219.326 307.225
L219.504 307.176
L219.817 307.077
L220.129 306.879
L220.486 306.781
L220.843 306.534
L221.156 306.435
L221.424 306.287
L221.692 306.188
L221.959 306.04
L222.629 305.941
L222.852 305.843
L223.254 305.744
L223.611 305.497
L223.968 305.398
L224.37 305.102
L224.593 305.003
L224.861 304.855
L225.441 304.756
L226.022 304.263
L226.557 304.164
L226.736 304.115
L227.093 304.016
L227.316 303.917
L227.718 303.818
L227.986 303.67
L228.611 303.571
L228.879 303.423
L229.102 303.325
L229.28 303.275
L229.548 303.176
L229.905 302.93
L230.307 302.831
L230.575 302.683
L231.021 302.584
L231.423 302.288
L231.736 302.189
L232.003 302.041
L232.45 301.942
L232.628 301.893
L233.477 301.794
L233.744 301.646
L234.191 301.547
L234.548 301.3
L234.726 301.202
L235.128 300.905
L235.396 300.807
L235.575 300.757
L235.753 300.659
L235.976 300.56
L236.378 300.461
L236.646 300.313
L236.914 300.214
L237.271 299.967
L237.494 299.869
L237.673 299.819
L237.985 299.72
L238.208 299.622
L238.655 299.523
L239.101 299.177
L239.637 299.079
L239.949 298.881
L240.44 298.782
L240.619 298.733
L241.021 298.634
L241.199 298.585
L241.556 298.486
L241.735 298.437
L242.003 298.338
L242.494 297.943
L242.628 297.844
L242.896 297.696
L243.03 297.598
L243.253 297.499
L243.431 297.4
L243.654 297.301
L244.413 297.203
L244.637 297.104
L244.949 297.005
L245.128 296.956
L245.619 296.857
L246.02 296.561
L246.154 296.462
L246.511 296.215
L246.735 296.116
L247.002 295.968
L247.449 295.87
L247.761 295.672
L247.985 295.573
L248.163 295.524
L248.52 295.425
L248.699 295.376
L249.145 295.277
L249.324 295.228
L249.815 295.129
L250.038 295.03
L250.529 294.931
L250.797 294.783
L251.288 294.685
L251.6 294.487
L251.779 294.388
L252.091 294.191
L252.582 294.092
L252.895 293.895
L253.118 293.796
L253.52 293.5
L253.698 293.401
L253.966 293.253
L254.413 293.154
L254.591 293.105
L255.127 293.006
L255.439 292.808
L255.93 292.71
L256.288 292.463
L257.091 292.364
L257.314 292.265
L257.448 292.167
L257.627 292.117
L258.207 292.019
L258.52 291.821
L259.189 291.722
L259.457 291.574
L259.636 291.475
L259.859 291.377
L260.216 291.278
L260.484 291.13
L261.019 291.031
L261.243 290.932
L261.912 290.834
L262.225 290.636
L262.403 290.537
L262.626 290.439
L262.85 290.34
L263.073 290.241
L263.341 290.142
L263.653 289.945
L263.966 289.846
L264.278 289.649
L264.814 289.55
L265.082 289.402
L265.483 289.303
L265.974 288.908
L266.287 288.809
L266.599 288.612
L267.09 288.513
L267.269 288.464
L267.805 288.365
L268.117 288.168
L268.474 288.069
L268.698 287.97
L268.831 287.871
L269.055 287.773
L269.769 287.674
L269.992 287.575
L270.662 287.476
L270.84 287.427
L271.287 287.328
L271.554 287.18
L272.135 287.081
L272.403 286.933
L272.76 286.835
L273.028 286.686
L273.34 286.588
L273.653 286.39
L273.786 286.291
L274.144 286.045
L274.322 285.946
L274.635 285.748
L274.992 285.65
L275.26 285.502
L275.929 285.403
L276.197 285.255
L276.465 285.156
L276.822 284.909
L277.268 284.81
L277.492 284.712
L277.715 284.613
L277.983 284.465
L279.009 284.366
L279.277 284.218
L279.947 284.119
L280.304 283.872
L280.616 283.774
L280.84 283.675
L281.331 283.576
L281.598 283.428
L282.045 283.329
L282.313 283.181
L282.491 283.082
L282.759 282.934
L283.339 282.835
L283.83 282.44
L284.143 282.342
L284.411 282.194
L285.705 282.095
L285.929 281.996
L286.821 281.897
L287.089 281.749
L287.848 281.651
L288.25 281.354
L288.607 281.256
L288.875 281.107
L289.098 281.009
L289.5 280.712
L290.571 280.614
L290.75 280.564
L290.973 280.466
L291.241 280.318
L291.598 280.219
L291.866 280.071
L292.357 279.972
L292.535 279.923
L292.758 279.824
L293.071 279.626
L293.294 279.528
L293.562 279.379
L294.053 279.281
L294.276 279.182
L294.589 279.083
L294.767 279.034
L294.901 278.935
L295.169 278.787
L295.437 278.688
L295.615 278.639
L295.839 278.54
L296.062 278.441
L296.24 278.343
L296.464 278.244
L296.731 278.145
L296.955 278.046
L297.312 277.948
L297.49 277.898
L297.714 277.8
L298.071 277.553
L298.696 277.454
L298.874 277.405
L299.142 277.306
L299.41 277.158
L300.124 277.059
L300.347 276.96
L300.972 276.862
L301.419 276.516
L301.597 276.417
L301.82 276.318
L302.178 276.22
L302.401 276.121
L303.07 276.022
L303.427 275.775
L303.829 275.677
L304.142 275.479
L304.41 275.38
L304.811 275.084
L305.079 274.985
L305.258 274.936
L306.195 274.837
L306.552 274.59
L307.311 274.492
L307.624 274.294
L307.891 274.195
L308.159 274.047
L308.561 273.949
L308.829 273.8
L309.097 273.702
L309.275 273.652
L309.588 273.554
L309.9 273.356
L310.347 273.257
L310.659 273.06
L310.972 272.961
L311.329 272.714
L311.864 272.616
L312.222 272.369
L312.757 272.27
L313.07 272.072
L313.65 271.974
L313.918 271.826
L314.141 271.727
L314.364 271.628
L314.632 271.529
L314.855 271.431
L315.168 271.332
L315.346 271.283
L315.793 271.184
L316.194 270.888
L316.73 270.789
L316.909 270.739
L317.087 270.641
L317.31 270.542
L317.534 270.443
L317.802 270.295
L318.382 270.196
L318.694 269.999
L319.185 269.9
L319.409 269.801
L320.034 269.703
L320.301 269.555
L320.569 269.456
L321.016 269.11
L321.551 269.011
L321.864 268.814
L322.042 268.715
L322.266 268.616
L322.578 268.518
L322.801 268.419
L323.114 268.32
L323.337 268.222
L323.649 268.123
L323.873 268.024
L324.006 267.925
L324.274 267.777
L324.721 267.678
L324.944 267.58
L325.212 267.481
L325.435 267.382
L325.747 267.283
L326.194 266.938
L326.462 266.839
L326.774 266.642
L326.997 266.543
L327.221 266.444
L327.533 266.345
L327.801 266.197
L328.649 266.099
L328.872 266
L329.229 265.901
L329.631 265.605
L330.167 265.506
L330.39 265.407
L330.747 265.309
L330.97 265.21
L331.194 265.111
L331.461 264.963
L331.685 264.864
L331.908 264.766
L332.22 264.667
L332.533 264.469
L332.979 264.371
L333.158 264.321
L333.47 264.222
L333.649 264.173
L334.095 264.074
L334.318 263.976
L334.586 263.877
L334.809 263.778
L335.791 263.679
L335.97 263.63
L336.506 263.531
L336.818 263.334
L337.086 263.235
L337.354 263.087
L337.711 262.988
L337.89 262.939
L338.202 262.84
L338.425 262.741
L339.095 262.643
L339.497 262.346
L339.809 262.248
L340.255 261.902
L340.88 261.803
L341.148 261.655
L341.729 261.556
L342.086 261.31
L342.577 261.211
L342.889 261.013
L343.246 260.915
L343.559 260.717
L344.005 260.618
L344.273 260.47
L345.3 260.371
L345.612 260.174
L345.746 260.075
L346.014 259.927
L346.237 259.828
L346.594 259.582
L347.13 259.483
L347.353 259.384
L347.532 259.285
L347.755 259.187
L348.246 259.088
L348.514 258.94
L348.96 258.841
L349.317 258.594
L349.942 258.495
L350.166 258.397
L350.478 258.298
L350.79 258.1
L351.728 258.002
L351.951 257.903
L352.442 257.804
L352.665 257.705
L353.022 257.607
L353.29 257.459
L353.514 257.36
L353.692 257.31
L353.96 257.212
L354.183 257.113
L354.63 257.014
L354.897 256.866
L355.165 256.767
L355.344 256.718
L355.746 256.619
L355.969 256.52
L356.594 256.422
L356.906 256.224
L357.353 256.126
L357.576 256.027
L357.888 255.928
L358.201 255.731
L358.558 255.632
L358.87 255.434
L359.361 255.336
L359.674 255.138
L359.897 255.039
L360.254 254.792
L360.879 254.694
L361.147 254.546
L361.37 254.447
L361.593 254.348
L361.772 254.249
L361.995 254.151
L362.218 254.052
L362.397 254.003
L363.111 253.904
L363.513 253.608
L363.691 253.509
L363.915 253.41
L364.406 253.311
L364.807 253.015
L365.12 252.916
L365.388 252.768
L365.879 252.67
L366.325 252.324
L366.638 252.225
L366.906 252.077
L367.173 251.978
L367.397 251.88
L368.334 251.781
L368.646 251.583
L369.093 251.485
L369.361 251.336
L369.629 251.238
L370.03 250.942
L370.387 250.843
L370.611 250.744
L371.057 250.645
L371.37 250.448
L371.727 250.349
L371.95 250.25
L372.753 250.152
L373.066 249.954
L373.378 249.855
L373.602 249.757
L373.914 249.658
L374.182 249.51
L374.539 249.411
L374.762 249.312
L375.476 249.214
L375.7 249.115
L376.191 249.016
L376.458 248.868
L377.173 248.769
L377.351 248.72
L377.976 248.621
L378.155 248.572
L378.824 248.473
L379.003 248.424
L379.271 248.325
L379.583 248.127
L380.119 248.029
L380.387 247.88
L380.565 247.782
L380.833 247.634
L381.19 247.535
L381.458 247.387
L381.681 247.288
L381.994 247.091
L382.44 246.992
L382.708 246.844
L383.065 246.745
L383.244 246.696
L383.422 246.597
L383.69 246.449
L383.958 246.35
L384.181 246.251
L384.717 246.152
L384.895 246.103
L385.208 246.004
L385.386 245.955
L385.833 245.856
L386.056 245.758
L386.324 245.659
L386.636 245.461
L387.217 245.363
L387.44 245.264
L387.708 245.165
L387.886 245.116
L388.199 245.017
L388.377 244.968
L388.556 244.869
L388.868 244.671
L389.002 244.573
L389.226 244.474
L389.761 244.375
L390.029 244.227
L390.342 244.128
L390.52 244.079
L390.833 243.98
L391.19 243.733
L391.547 243.635
L391.859 243.437
L392.038 243.338
L392.35 243.141
L392.618 243.042
L392.841 242.943
L393.154 242.845
L393.332 242.795
L393.913 242.696
L394.136 242.598
L394.761 242.499
L394.984 242.4
L395.609 242.302
L395.832 242.203
L396.279 242.104
L396.546 241.956
L396.814 241.857
L397.127 241.66
L397.573 241.561
L397.752 241.512
L398.243 241.413
L398.6 241.166
L399.225 241.067
L399.582 240.82
L400.252 240.722
L400.475 240.623
L400.921 240.524
L401.234 240.327
L401.859 240.228
L402.082 240.129
L402.35 240.03
L402.662 239.833
L402.93 239.734
L403.198 239.586
L403.466 239.487
L403.644 239.438
L404.001 239.339
L404.18 239.29
L404.358 239.191
L404.537 239.142
L405.028 239.043
L405.341 238.846
L405.742 238.747
L405.966 238.648
L406.099 238.549
L406.501 238.253
L406.903 238.154
L407.082 238.105
L407.439 238.006
L407.751 237.809
L408.064 237.71
L408.465 237.414
L408.867 237.315
L409.135 237.167
L409.537 237.068
L409.805 236.92
L410.206 236.821
L410.43 236.723
L410.876 236.624
L411.144 236.476
L411.724 236.377
L411.947 236.278
L412.26 236.179
L412.483 236.081
L412.795 235.982
L413.019 235.883
L413.465 235.784
L413.688 235.686
L414.09 235.587
L414.536 235.241
L415.072 235.143
L415.34 234.995
L415.563 234.896
L415.786 234.797
L416.099 234.698
L416.322 234.6
L416.501 234.501
L416.724 234.402
L416.947 234.303
L417.304 234.056
L417.527 233.958
L417.795 233.81
L418.242 233.711
L418.509 233.563
L418.956 233.464
L419.134 233.415
L419.491 233.316
L419.759 233.168
L420.027 233.069
L420.206 233.02
L420.563 232.921
L420.875 232.723
L421.188 232.625
L421.5 232.427
L421.723 232.328
L421.947 232.23
L422.482 232.131
L422.75 231.983
L422.973 231.884
L423.241 231.736
L423.777 231.637
L424.089 231.44
L424.491 231.341
L424.982 230.946
L425.205 230.847
L425.384 230.798
L425.786 230.699
L426.009 230.6
L426.321 230.502
L426.678 230.255
L427.036 230.156
L427.393 229.909
L427.884 229.811
L428.152 229.662
L428.33 229.564
L428.598 229.416
L429.044 229.317
L429.402 229.07
L429.669 228.971
L429.893 228.872
L430.16 228.774
L430.384 228.675
L430.651 228.576
L430.83 228.527
L431.276 228.428
L431.544 228.28
L431.812 228.181
L431.991 228.132
L432.526 228.033
L432.883 227.786
L433.241 227.688
L433.419 227.638
L433.91 227.539
L434.267 227.293
L434.848 227.194
L435.071 227.095
L435.339 226.996
L435.74 226.7
L436.187 226.601
L436.365 226.552
L436.633 226.453
L436.856 226.355
L437.481 226.256
L437.749 226.108
L438.33 226.009
L438.597 225.861
L439.088 225.762
L439.401 225.565
L439.758 225.466
L440.115 225.219
L441.097 225.12
L441.276 225.071
L441.588 224.972
L441.811 224.873
L442.213 224.775
L442.392 224.725
L442.66 224.627
L442.883 224.528
L443.24 224.429
L443.418 224.38
L443.91 224.281
L444.267 224.034
L444.758 223.935
L444.936 223.886
L445.07 223.787
L445.427 223.54
L445.74 223.442
L445.963 223.343
L446.633 223.244
L446.811 223.195
L447.481 223.096
L447.882 222.8
L448.284 222.701
L448.507 222.602
L448.909 222.504
L449.311 222.207
L449.847 222.109
L450.159 221.911
L450.427 221.812
L450.784 221.566
L451.23 221.467
L451.498 221.319
L451.677 221.22
L451.9 221.121
L452.391 221.022
L452.748 220.776
L453.061 220.677
L453.239 220.627
L454.087 220.529
L454.311 220.43
L454.757 220.331
L455.025 220.183
L455.382 220.084
L455.694 219.887
L455.873 219.788
L456.23 219.541
L456.677 219.443
L457.078 219.146
L457.659 219.048
L457.926 218.899
L458.194 218.801
L458.462 218.653
L458.819 218.554
L459.221 218.258
L459.801 218.159
L460.025 218.06
L460.158 217.961
L460.471 217.764
L460.917 217.665
L461.096 217.616
L461.23 217.517
L461.498 217.369
L461.855 217.27
L462.257 216.974
L462.748 216.875
L462.971 216.776
L463.373 216.678
L463.685 216.48
L464.265 216.382
L464.444 216.332
L464.846 216.233
L465.069 216.135
L465.292 216.036
L465.56 215.888
L466.006 215.789
L466.185 215.74
L466.453 215.641
L466.721 215.493
L466.944 215.394
L467.301 215.147
L467.524 215.048
L467.747 214.95
L468.238 214.851
L468.417 214.802
L468.685 214.703
L468.863 214.654
L469.265 214.555
L469.578 214.357
L469.756 214.259
L469.935 214.209
L470.336 214.11
L470.56 214.012
L471.14 213.913
L471.408 213.765
L471.81 213.666
L471.988 213.617
L472.702 213.518
L473.104 213.222
L473.417 213.123
L473.64 213.024
L473.952 212.926
L474.265 212.728
L474.443 212.629
L474.622 212.58
L475.113 212.481
L475.336 212.382
L475.47 212.284
L475.738 212.136
L476.006 212.037
L476.318 211.839
L476.675 211.741
L476.898 211.642
L477.791 211.543
L478.014 211.444
L478.327 211.346
L478.55 211.247
L478.863 211.148
L479.264 210.852
L479.8 210.753
L480.023 210.654
L480.559 210.556
L480.782 210.457
L480.916 210.358
L481.139 210.259
L481.541 210.161
L481.809 210.013
L481.987 209.914
L482.255 209.766
L482.657 209.667
L482.925 209.519
L483.103 209.42
L483.327 209.321
L483.594 209.223
L483.907 209.025
L484.309 208.926
L484.621 208.729
L484.844 208.63
L485.068 208.531
L485.425 208.433
L485.648 208.334
L485.916 208.235
L486.362 207.89
L486.853 207.791
L487.076 207.692
L487.523 207.593
L487.791 207.445
L488.103 207.347
L488.371 207.198
L488.728 207.1
L489.041 206.902
L489.844 206.803
L490.067 206.705
L490.335 206.606
L490.514 206.557
L490.782 206.458
L490.96 206.408
L491.362 206.31
L491.54 206.26
L491.987 206.162
L492.255 206.014
L492.612 205.915
L492.835 205.816
L493.147 205.717
L493.415 205.569
L493.906 205.47
L494.219 205.273
L494.576 205.174
L494.888 204.977
L495.112 204.878
L495.29 204.829
L495.737 204.73
L495.915 204.68
L496.183 204.582
L496.406 204.483
L496.585 204.384
L496.808 204.286
L497.299 204.187
L497.522 204.088
L497.701 203.989
L497.924 203.891
L498.37 203.792
L498.594 203.693
L498.906 203.594
L499.308 203.298
L499.665 203.199
L499.977 203.002
L500.424 202.903
L500.781 202.656
L501.227 202.558
L501.54 202.36
L502.254 202.261
L502.433 202.212
L502.879 202.113
L503.236 201.866
L503.37 201.817
L503.37 201.817" style="fill:none;stroke:#ff0000;stroke-linecap:square;"/>
   </g>
   <g id="patch_3">
    <path d="
M56.97 23.1417
L503.37 23.1417" style="fill:none;stroke:#000000;stroke-linecap:square;stroke-linejoin:miter;"/>
   </g>
   <g id="patch_4">
    <path d="
M56.97 368.742
L503.37 368.742" style="fill:none;stroke:#000000;stroke-linecap:square;stroke-linejoin:miter;"/>
   </g>
   <g id="patch_5">
    <path d="
M503.37 368.742
L503.37 23.1417" style="fill:none;stroke:#000000;stroke-linecap:square;stroke-linejoin:miter;"/>
   </g>
   <g id="patch_6">
    <path d="
M56.97 368.742
L56.97 23.1417" style="fill:none;stroke:#000000;stroke-linecap:square;stroke-linejoin:miter;"/>
   </g>
   <g id="matplotlib.axis_1">
    <g id="xtick_1">
     <g id="line2d_4">
      <defs>
       <path d="
M0 0
L0 -4" id="mc7db9fdffb" style="stroke:#000000;stroke-width:0.5;"/>
      </defs>
      <g>
       <use style="stroke:#000000;stroke-width:0.5;" x="56.97" xlink:href="#mc7db9fdffb" y="368.74175"/>
      </g>
     </g>
     <g id="line2d_5">
      <defs>
       <path d="
M0 0
L0 4" id="m5a7d422ac3" style="stroke:#000000;stroke-width:0.5;"/>
      </defs>
      <g>
       <use style="stroke:#000000;stroke-width:0.5;" x="56.97" xlink:href="#m5a7d422ac3" y="23.14175"/>
      </g>
     </g>
     <g id="text_1">
      <!-- 0 -->
      <defs>
       <path d="
M31.7812 66.4062
Q24.1719 66.4062 20.3281 58.9062
Q16.5 51.4219 16.5 36.375
Q16.5 21.3906 20.3281 13.8906
Q24.1719 6.39062 31.7812 6.39062
Q39.4531 6.39062 43.2812 13.8906
Q47.125 21.3906 47.125 36.375
Q47.125 51.4219 43.2812 58.9062
Q39.4531 66.4062 31.7812 66.4062
M31.7812 74.2188
Q44.0469 74.2188 50.5156 64.5156
Q56.9844 54.8281 56.9844 36.375
Q56.9844 17.9688 50.5156 8.26562
Q44.0469 -1.42188 31.7812 -1.42188
Q19.5312 -1.42188 13.0625 8.26562
Q6.59375 17.9688 6.59375 36.375
Q6.59375 54.8281 13.0625 64.5156
Q19.5312 74.2188 31.7812 74.2188" id="DejaVuSans-30"/>
      </defs>
      <g transform="translate(53.9465625 381.859875)scale(0.12 -0.12)">
       <use xlink:href="#DejaVuSans-30"/>
      </g>
     </g>
    </g>
    <g id="xtick_2">
     <g id="line2d_6">
      <g>
       <use style="stroke:#000000;stroke-width:0.5;" x="146.25" xlink:href="#mc7db9fdffb" y="368.74175"/>
      </g>
     </g>
     <g id="line2d_7">
      <g>
       <use style="stroke:#000000;stroke-width:0.5;" x="146.25" xlink:href="#m5a7d422ac3" y="23.14175"/>
      </g>
     </g>
     <g id="text_2">
      <!-- 2000 -->
      <defs>
       <path d="
M19.1875 8.29688
L53.6094 8.29688
L53.6094 0
L7.32812 0
L7.32812 8.29688
Q12.9375 14.1094 22.625 23.8906
Q32.3281 33.6875 34.8125 36.5312
Q39.5469 41.8438 41.4219 45.5312
Q43.3125 49.2188 43.3125 52.7812
Q43.3125 58.5938 39.2344 62.25
Q35.1562 65.9219 28.6094 65.9219
Q23.9688 65.9219 18.8125 64.3125
Q13.6719 62.7031 7.8125 59.4219
L7.8125 69.3906
Q13.7656 71.7812 18.9375 73
Q24.125 74.2188 28.4219 74.2188
Q39.75 74.2188 46.4844 68.5469
Q53.2188 62.8906 53.2188 53.4219
Q53.2188 48.9219 51.5312 44.8906
Q49.8594 40.875 45.4062 35.4062
Q44.1875 33.9844 37.6406 27.2188
Q31.1094 20.4531 19.1875 8.29688" id="DejaVuSans-32"/>
      </defs>
      <g transform="translate(131.818125 381.859875)scale(0.12 -0.12)">
       <use xlink:href="#DejaVuSans-32"/>
       <use x="63.623046875" xlink:href="#DejaVuSans-30"/>
       <use x="127.24609375" xlink:href="#DejaVuSans-30"/>
       <use x="190.869140625" xlink:href="#DejaVuSans-30"/>
      </g>
     </g>
    </g>
    <g id="xtick_3">
     <g id="line2d_8">
      <g>
       <use style="stroke:#000000;stroke-width:0.5;" x="235.53" xlink:href="#mc7db9fdffb" y="368.74175"/>
      </g>
     </g>
     <g id="line2d_9">
      <g>
       <use style="stroke:#000000;stroke-width:0.5;" x="235.53" xlink:href="#m5a7d422ac3" y="23.14175"/>
      </g>
     </g>
     <g id="text_3">
      <!-- 4000 -->
      <defs>
       <path d="
M37.7969 64.3125
L12.8906 25.3906
L37.7969 25.3906
z

M35.2031 72.9062
L47.6094 72.9062
L47.6094 25.3906
L58.0156 25.3906
L58.0156 17.1875
L47.6094 17.1875
L47.6094 0
L37.7969 0
L37.7969 17.1875
L4.89062 17.1875
L4.89062 26.7031
z
" id="DejaVuSans-34"/>
      </defs>
      <g transform="translate(220.951875 381.859875)scale(0.12 -0.12)">
       <use xlink:href="#DejaVuSans-34"/>
       <use x="63.623046875" xlink:href="#DejaVuSans-30"/>
       <use x="127.24609375" xlink:href="#DejaVuSans-30"/>
       <use x="190.869140625" xlink:href="#DejaVuSans-30"/>
      </g>
     </g>
    </g>
    <g id="xtick_4">
     <g id="line2d_10">
      <g>
       <use style="stroke:#000000;stroke-width:0.5;" x="324.81" xlink:href="#mc7db9fdffb" y="368.74175"/>
      </g>
     </g>
     <g id="line2d_11">
      <g>
       <use style="stroke:#000000;stroke-width:0.5;" x="324.81" xlink:href="#m5a7d422ac3" y="23.14175"/>
      </g>
     </g>
     <g id="text_4">
      <!-- 6000 -->
      <defs>
       <path d="
M33.0156 40.375
Q26.375 40.375 22.4844 35.8281
Q18.6094 31.2969 18.6094 23.3906
Q18.6094 15.5312 22.4844 10.9531
Q26.375 6.39062 33.0156 6.39062
Q39.6562 6.39062 43.5312 10.9531
Q47.4062 15.5312 47.4062 23.3906
Q47.4062 31.2969 43.5312 35.8281
Q39.6562 40.375 33.0156 40.375
M52.5938 71.2969
L52.5938 62.3125
Q48.875 64.0625 45.0938 64.9844
Q41.3125 65.9219 37.5938 65.9219
Q27.8281 65.9219 22.6719 59.3281
Q17.5312 52.7344 16.7969 39.4062
Q19.6719 43.6562 24.0156 45.9219
Q28.375 48.1875 33.5938 48.1875
Q44.5781 48.1875 50.9531 41.5156
Q57.3281 34.8594 57.3281 23.3906
Q57.3281 12.1562 50.6875 5.35938
Q44.0469 -1.42188 33.0156 -1.42188
Q20.3594 -1.42188 13.6719 8.26562
Q6.98438 17.9688 6.98438 36.375
Q6.98438 53.6562 15.1875 63.9375
Q23.3906 74.2188 37.2031 74.2188
Q40.9219 74.2188 44.7031 73.4844
Q48.4844 72.75 52.5938 71.2969" id="DejaVuSans-36"/>
      </defs>
      <g transform="translate(310.3575 381.859875)scale(0.12 -0.12)">
       <use xlink:href="#DejaVuSans-36"/>
       <use x="63.623046875" xlink:href="#DejaVuSans-30"/>
       <use x="127.24609375" xlink:href="#DejaVuSans-30"/>
       <use x="190.869140625" xlink:href="#DejaVuSans-30"/>
      </g>
     </g>
    </g>
    <g id="xtick_5">
     <g id="line2d_12">
      <g>
       <use style="stroke:#000000;stroke-width:0.5;" x="414.09" xlink:href="#mc7db9fdffb" y="368.74175"/>
      </g>
     </g>
     <g id="line2d_13">
      <g>
       <use style="stroke:#000000;stroke-width:0.5;" x="414.09" xlink:href="#m5a7d422ac3" y="23.14175"/>
      </g>
     </g>
     <g id="text_5">
      <!-- 8000 -->
      <defs>
       <path d="
M31.7812 34.625
Q24.75 34.625 20.7188 30.8594
Q16.7031 27.0938 16.7031 20.5156
Q16.7031 13.9219 20.7188 10.1562
Q24.75 6.39062 31.7812 6.39062
Q38.8125 6.39062 42.8594 10.1719
Q46.9219 13.9688 46.9219 20.5156
Q46.9219 27.0938 42.8906 30.8594
Q38.875 34.625 31.7812 34.625
M21.9219 38.8125
Q15.5781 40.375 12.0312 44.7188
Q8.5 49.0781 8.5 55.3281
Q8.5 64.0625 14.7188 69.1406
Q20.9531 74.2188 31.7812 74.2188
Q42.6719 74.2188 48.875 69.1406
Q55.0781 64.0625 55.0781 55.3281
Q55.0781 49.0781 51.5312 44.7188
Q48 40.375 41.7031 38.8125
Q48.8281 37.1562 52.7969 32.3125
Q56.7812 27.4844 56.7812 20.5156
Q56.7812 9.90625 50.3125 4.23438
Q43.8438 -1.42188 31.7812 -1.42188
Q19.7344 -1.42188 13.25 4.23438
Q6.78125 9.90625 6.78125 20.5156
Q6.78125 27.4844 10.7812 32.3125
Q14.7969 37.1562 21.9219 38.8125
M18.3125 54.3906
Q18.3125 48.7344 21.8438 45.5625
Q25.3906 42.3906 31.7812 42.3906
Q38.1406 42.3906 41.7188 45.5625
Q45.3125 48.7344 45.3125 54.3906
Q45.3125 60.0625 41.7188 63.2344
Q38.1406 66.4062 31.7812 66.4062
Q25.3906 66.4062 21.8438 63.2344
Q18.3125 60.0625 18.3125 54.3906" id="DejaVuSans-38"/>
      </defs>
      <g transform="translate(399.6253125 381.859875)scale(0.12 -0.12)">
       <use xlink:href="#DejaVuSans-38"/>
       <use x="63.623046875" xlink:href="#DejaVuSans-30"/>
       <use x="127.24609375" xlink:href="#DejaVuSans-30"/>
       <use x="190.869140625" xlink:href="#DejaVuSans-30"/>
      </g>
     </g>
    </g>
    <g id="xtick_6">
     <g id="line2d_14">
      <g>
       <use style="stroke:#000000;stroke-width:0.5;" x="503.37" xlink:href="#mc7db9fdffb" y="368.74175"/>
      </g>
     </g>
     <g id="line2d_15">
      <g>
       <use style="stroke:#000000;stroke-width:0.5;" x="503.37" xlink:href="#m5a7d422ac3" y="23.14175"/>
      </g>
     </g>
     <g id="text_6">
      <!-- 10000 -->
      <defs>
       <path d="
M12.4062 8.29688
L28.5156 8.29688
L28.5156 63.9219
L10.9844 60.4062
L10.9844 69.3906
L28.4219 72.9062
L38.2812 72.9062
L38.2812 8.29688
L54.3906 8.29688
L54.3906 0
L12.4062 0
z
" id="DejaVuSans-31"/>
      </defs>
      <g transform="translate(485.34 381.859875)scale(0.12 -0.12)">
       <use xlink:href="#DejaVuSans-31"/>
       <use x="63.623046875" xlink:href="#DejaVuSans-30"/>
       <use x="127.24609375" xlink:href="#DejaVuSans-30"/>
       <use x="190.869140625" xlink:href="#DejaVuSans-30"/>
       <use x="254.4921875" xlink:href="#DejaVuSans-30"/>
      </g>
     </g>
    </g>
    <g id="text_7">
     <!-- number of games -->
     <defs>
      <path d="
M41.1094 46.2969
Q39.5938 47.1719 37.8125 47.5781
Q36.0312 48 33.8906 48
Q26.2656 48 22.1875 43.0469
Q18.1094 38.0938 18.1094 28.8125
L18.1094 0
L9.07812 0
L9.07812 54.6875
L18.1094 54.6875
L18.1094 46.1875
Q20.9531 51.1719 25.4844 53.5781
Q30.0312 56 36.5312 56
Q37.4531 56 38.5781 55.875
Q39.7031 55.7656 41.0625 55.5156
z
" id="DejaVuSans-72"/>
      <path d="
M52 44.1875
Q55.375 50.25 60.0625 53.125
Q64.75 56 71.0938 56
Q79.6406 56 84.2812 50.0156
Q88.9219 44.0469 88.9219 33.0156
L88.9219 0
L79.8906 0
L79.8906 32.7188
Q79.8906 40.5781 77.0938 44.375
Q74.3125 48.1875 68.6094 48.1875
Q61.625 48.1875 57.5625 43.5469
Q53.5156 38.9219 53.5156 30.9062
L53.5156 0
L44.4844 0
L44.4844 32.7188
Q44.4844 40.625 41.7031 44.4062
Q38.9219 48.1875 33.1094 48.1875
Q26.2188 48.1875 22.1562 43.5312
Q18.1094 38.875 18.1094 30.9062
L18.1094 0
L9.07812 0
L9.07812 54.6875
L18.1094 54.6875
L18.1094 46.1875
Q21.1875 51.2188 25.4844 53.6094
Q29.7812 56 35.6875 56
Q41.6562 56 45.8281 52.9688
Q50 49.9531 52 44.1875" id="DejaVuSans-6d"/>
      <path id="DejaVuSans-20"/>
      <path d="
M37.1094 75.9844
L37.1094 68.5
L28.5156 68.5
Q23.6875 68.5 21.7969 66.5469
Q19.9219 64.5938 19.9219 59.5156
L19.9219 54.6875
L34.7188 54.6875
L34.7188 47.7031
L19.9219 47.7031
L19.9219 0
L10.8906 0
L10.8906 47.7031
L2.29688 47.7031
L2.29688 54.6875
L10.8906 54.6875
L10.8906 58.5
Q10.8906 67.625 15.1406 71.7969
Q19.3906 75.9844 28.6094 75.9844
z
" id="DejaVuSans-66"/>
      <path d="
M34.2812 27.4844
Q23.3906 27.4844 19.1875 25
Q14.9844 22.5156 14.9844 16.5
Q14.9844 11.7188 18.1406 8.90625
Q21.2969 6.10938 26.7031 6.10938
Q34.1875 6.10938 38.7031 11.4062
Q43.2188 16.7031 43.2188 25.4844
L43.2188 27.4844
z

M52.2031 31.2031
L52.2031 0
L43.2188 0
L43.2188 8.29688
Q40.1406 3.32812 35.5469 0.953125
Q30.9531 -1.42188 24.3125 -1.42188
Q15.9219 -1.42188 10.9531 3.29688
Q6 8.01562 6 15.9219
Q6 25.1406 12.1719 29.8281
Q18.3594 34.5156 30.6094 34.5156
L43.2188 34.5156
L43.2188 35.4062
Q43.2188 41.6094 39.1406 45
Q35.0625 48.3906 27.6875 48.3906
Q23 48.3906 18.5469 47.2656
Q14.1094 46.1406 10.0156 43.8906
L10.0156 52.2031
Q14.9375 54.1094 19.5781 55.0469
Q24.2188 56 28.6094 56
Q40.4844 56 46.3438 49.8438
Q52.2031 43.7031 52.2031 31.2031" id="DejaVuSans-61"/>
      <path d="
M48.6875 27.2969
Q48.6875 37.2031 44.6094 42.8438
Q40.5312 48.4844 33.4062 48.4844
Q26.2656 48.4844 22.1875 42.8438
Q18.1094 37.2031 18.1094 27.2969
Q18.1094 17.3906 22.1875 11.75
Q26.2656 6.10938 33.4062 6.10938
Q40.5312 6.10938 44.6094 11.75
Q48.6875 17.3906 48.6875 27.2969
M18.1094 46.3906
Q20.9531 51.2656 25.2656 53.625
Q29.5938 56 35.5938 56
Q45.5625 56 51.7812 48.0938
Q58.0156 40.1875 58.0156 27.2969
Q58.0156 14.4062 51.7812 6.48438
Q45.5625 -1.42188 35.5938 -1.42188
Q29.5938 -1.42188 25.2656 0.953125
Q20.9531 3.32812 18.1094 8.20312
L18.1094 0
L9.07812 0
L9.07812 75.9844
L18.1094 75.9844
z
" id="DejaVuSans-62"/>
      <path d="
M45.4062 27.9844
Q45.4062 37.75 41.375 43.1094
Q37.3594 48.4844 30.0781 48.4844
Q22.8594 48.4844 18.8281 43.1094
Q14.7969 37.75 14.7969 27.9844
Q14.7969 18.2656 18.8281 12.8906
Q22.8594 7.51562 30.0781 7.51562
Q37.3594 7.51562 41.375 12.8906
Q45.4062 18.2656 45.4062 27.9844
M54.3906 6.78125
Q54.3906 -7.17188 48.1875 -13.9844
Q42 -20.7969 29.2031 -20.7969
Q24.4688 -20.7969 20.2656 -20.0938
Q16.0625 -19.3906 12.1094 -17.9219
L12.1094 -9.1875
Q16.0625 -11.3281 19.9219 -12.3438
Q23.7812 -13.375 27.7812 -13.375
Q36.625 -13.375 41.0156 -8.76562
Q45.4062 -4.15625 45.4062 5.17188
L45.4062 9.625
Q42.625 4.78125 38.2812 2.39062
Q33.9375 0 27.875 0
Q17.8281 0 11.6719 7.65625
Q5.51562 15.3281 5.51562 27.9844
Q5.51562 40.6719 11.6719 48.3281
Q17.8281 56 27.875 56
Q33.9375 56 38.2812 53.6094
Q42.625 51.2188 45.4062 46.3906
L45.4062 54.6875
L54.3906 54.6875
z
" id="DejaVuSans-67"/>
      <path d="
M44.2812 53.0781
L44.2812 44.5781
Q40.4844 46.5312 36.375 47.5
Q32.2812 48.4844 27.875 48.4844
Q21.1875 48.4844 17.8438 46.4375
Q14.5 44.3906 14.5 40.2812
Q14.5 37.1562 16.8906 35.375
Q19.2812 33.5938 26.5156 31.9844
L29.5938 31.2969
Q39.1562 29.25 43.1875 25.5156
Q47.2188 21.7812 47.2188 15.0938
Q47.2188 7.46875 41.1875 3.01562
Q35.1562 -1.42188 24.6094 -1.42188
Q20.2188 -1.42188 15.4531 -0.5625
Q10.6875 0.296875 5.42188 2
L5.42188 11.2812
Q10.4062 8.6875 15.2344 7.39062
Q20.0625 6.10938 24.8125 6.10938
Q31.1562 6.10938 34.5625 8.28125
Q37.9844 10.4531 37.9844 14.4062
Q37.9844 18.0625 35.5156 20.0156
Q33.0625 21.9688 24.7031 23.7812
L21.5781 24.5156
Q13.2344 26.2656 9.51562 29.9062
Q5.8125 33.5469 5.8125 39.8906
Q5.8125 47.6094 11.2812 51.7969
Q16.75 56 26.8125 56
Q31.7812 56 36.1719 55.2656
Q40.5781 54.5469 44.2812 53.0781" id="DejaVuSans-73"/>
      <path d="
M54.8906 33.0156
L54.8906 0
L45.9062 0
L45.9062 32.7188
Q45.9062 40.4844 42.875 44.3281
Q39.8438 48.1875 33.7969 48.1875
Q26.5156 48.1875 22.3125 43.5469
Q18.1094 38.9219 18.1094 30.9062
L18.1094 0
L9.07812 0
L9.07812 54.6875
L18.1094 54.6875
L18.1094 46.1875
Q21.3438 51.125 25.7031 53.5625
Q30.0781 56 35.7969 56
Q45.2188 56 50.0469 50.1719
Q54.8906 44.3438 54.8906 33.0156" id="DejaVuSans-6e"/>
      <path d="
M56.2031 29.5938
L56.2031 25.2031
L14.8906 25.2031
Q15.4844 15.9219 20.4844 11.0625
Q25.4844 6.20312 34.4219 6.20312
Q39.5938 6.20312 44.4531 7.46875
Q49.3125 8.73438 54.1094 11.2812
L54.1094 2.78125
Q49.2656 0.734375 44.1875 -0.34375
Q39.1094 -1.42188 33.8906 -1.42188
Q20.7969 -1.42188 13.1562 6.1875
Q5.51562 13.8125 5.51562 26.8125
Q5.51562 40.2344 12.7656 48.1094
Q20.0156 56 32.3281 56
Q43.3594 56 49.7812 48.8906
Q56.2031 41.7969 56.2031 29.5938
M47.2188 32.2344
Q47.125 39.5938 43.0938 43.9844
Q39.0625 48.3906 32.4219 48.3906
Q24.9062 48.3906 20.3906 44.1406
Q15.875 39.8906 15.1875 32.1719
z
" id="DejaVuSans-65"/>
      <path d="
M30.6094 48.3906
Q23.3906 48.3906 19.1875 42.75
Q14.9844 37.1094 14.9844 27.2969
Q14.9844 17.4844 19.1562 11.8438
Q23.3438 6.20312 30.6094 6.20312
Q37.7969 6.20312 41.9844 11.8594
Q46.1875 17.5312 46.1875 27.2969
Q46.1875 37.0156 41.9844 42.7031
Q37.7969 48.3906 30.6094 48.3906
M30.6094 56
Q42.3281 56 49.0156 48.375
Q55.7188 40.7656 55.7188 27.2969
Q55.7188 13.875 49.0156 6.21875
Q42.3281 -1.42188 30.6094 -1.42188
Q18.8438 -1.42188 12.1719 6.21875
Q5.51562 13.875 5.51562 27.2969
Q5.51562 40.7656 12.1719 48.375
Q18.8438 56 30.6094 56" id="DejaVuSans-6f"/>
      <path d="
M8.5 21.5781
L8.5 54.6875
L17.4844 54.6875
L17.4844 21.9219
Q17.4844 14.1562 20.5 10.2656
Q23.5312 6.39062 29.5938 6.39062
Q36.8594 6.39062 41.0781 11.0312
Q45.3125 15.6719 45.3125 23.6875
L45.3125 54.6875
L54.2969 54.6875
L54.2969 0
L45.3125 0
L45.3125 8.40625
Q42.0469 3.42188 37.7188 1
Q33.4062 -1.42188 27.6875 -1.42188
Q18.2656 -1.42188 13.375 4.4375
Q8.5 10.2969 8.5 21.5781
M31.1094 56
z
" id="DejaVuSans-75"/>
     </defs>
     <g transform="translate(227.300625 398.473625)scale(0.12 -0.12)">
      <use xlink:href="#DejaVuSans-6e"/>
      <use x="63.37890625" xlink:href="#DejaVuSans-75"/>
      <use x="126.7578125" xlink:href="#DejaVuSans-6d"/>
      <use x="224.169921875" xlink:href="#DejaVuSans-62"/>
      <use x="287.646484375" xlink:href="#DejaVuSans-65"/>
      <use x="349.169921875" xlink:href="#DejaVuSans-72"/>
      <use x="390.283203125" xlink:href="#DejaVuSans-20"/>
      <use x="422.0703125" xlink:href="#DejaVuSans-6f"/>
      <use x="483.251953125" xlink:href="#DejaVuSans-66"/>
      <use x="518.45703125" xlink:href="#DejaVuSans-20"/>
      <use x="550.244140625" xlink:href="#DejaVuSans-67"/>
      <use x="613.720703125" xlink:href="#DejaVuSans-61"/>
      <use x="675.0" xlink:href="#DejaVuSans-6d"/>
      <use x="772.412109375" xlink:href="#DejaVuSans-65"/>
      <use x="833.935546875" xlink:href="#DejaVuSans-73"/>
     </g>
    </g>
   </g>
   <g id="matplotlib.axis_2">
    <g id="ytick_1">
     <g id="line2d_16">
      <defs>
       <path d="
M0 0
L4 0" id="md7965d1ba0" style="stroke:#000000;stroke-width:0.5;"/>
      </defs>
      <g>
       <use style="stroke:#000000;stroke-width:0.5;" x="56.97" xlink:href="#md7965d1ba0" y="368.74175"/>
      </g>
     </g>
     <g id="line2d_17">
      <defs>
       <path d="
M0 0
L-4 0" id="md9a1c1a7cd" style="stroke:#000000;stroke-width:0.5;"/>
      </defs>
      <g>
       <use style="stroke:#000000;stroke-width:0.5;" x="503.37" xlink:href="#md9a1c1a7cd" y="368.74175"/>
      </g>
     </g>
     <g id="text_8">
      <!-- 0 -->
      <g transform="translate(46.923125 372.053)scale(0.12 -0.12)">
       <use xlink:href="#DejaVuSans-30"/>
      </g>
     </g>
    </g>
    <g id="ytick_2">
     <g id="line2d_18">
      <g>
       <use style="stroke:#000000;stroke-width:0.5;" x="56.97" xlink:href="#md7965d1ba0" y="319.370321429"/>
      </g>
     </g>
     <g id="line2d_19">
      <g>
       <use style="stroke:#000000;stroke-width:0.5;" x="503.37" xlink:href="#md9a1c1a7cd" y="319.370321429"/>
      </g>
     </g>
     <g id="text_9">
      <!-- 1000 -->
      <g transform="translate(24.545 322.681571429)scale(0.12 -0.12)">
       <use xlink:href="#DejaVuSans-31"/>
       <use x="63.623046875" xlink:href="#DejaVuSans-30"/>
       <use x="127.24609375" xlink:href="#DejaVuSans-30"/>
       <use x="190.869140625" xlink:href="#DejaVuSans-30"/>
      </g>
     </g>
    </g>
    <g id="ytick_3">
     <g id="line2d_20">
      <g>
       <use style="stroke:#000000;stroke-width:0.5;" x="56.97" xlink:href="#md7965d1ba0" y="269.998892857"/>
      </g>
     </g>
     <g id="line2d_21">
      <g>
       <use style="stroke:#000000;stroke-width:0.5;" x="503.37" xlink:href="#md9a1c1a7cd" y="269.998892857"/>
      </g>
     </g>
     <g id="text_10">
      <!-- 2000 -->
      <g transform="translate(24.10625 273.310142857)scale(0.12 -0.12)">
       <use xlink:href="#DejaVuSans-32"/>
       <use x="63.623046875" xlink:href="#DejaVuSans-30"/>
       <use x="127.24609375" xlink:href="#DejaVuSans-30"/>
       <use x="190.869140625" xlink:href="#DejaVuSans-30"/>
      </g>
     </g>
    </g>
    <g id="ytick_4">
     <g id="line2d_22">
      <g>
       <use style="stroke:#000000;stroke-width:0.5;" x="56.97" xlink:href="#md7965d1ba0" y="220.627464286"/>
      </g>
     </g>
     <g id="line2d_23">
      <g>
       <use style="stroke:#000000;stroke-width:0.5;" x="503.37" xlink:href="#md9a1c1a7cd" y="220.627464286"/>
      </g>
     </g>
     <g id="text_11">
      <!-- 3000 -->
      <defs>
       <path d="
M40.5781 39.3125
Q47.6562 37.7969 51.625 33
Q55.6094 28.2188 55.6094 21.1875
Q55.6094 10.4062 48.1875 4.48438
Q40.7656 -1.42188 27.0938 -1.42188
Q22.5156 -1.42188 17.6562 -0.515625
Q12.7969 0.390625 7.625 2.20312
L7.625 11.7188
Q11.7188 9.32812 16.5938 8.10938
Q21.4844 6.89062 26.8125 6.89062
Q36.0781 6.89062 40.9375 10.5469
Q45.7969 14.2031 45.7969 21.1875
Q45.7969 27.6406 41.2812 31.2656
Q36.7656 34.9062 28.7188 34.9062
L20.2188 34.9062
L20.2188 43.0156
L29.1094 43.0156
Q36.375 43.0156 40.2344 45.9219
Q44.0938 48.8281 44.0938 54.2969
Q44.0938 59.9062 40.1094 62.9062
Q36.1406 65.9219 28.7188 65.9219
Q24.6562 65.9219 20.0156 65.0312
Q15.375 64.1562 9.8125 62.3125
L9.8125 71.0938
Q15.4375 72.6562 20.3438 73.4375
Q25.25 74.2188 29.5938 74.2188
Q40.8281 74.2188 47.3594 69.1094
Q53.9062 64.0156 53.9062 55.3281
Q53.9062 49.2656 50.4375 45.0938
Q46.9688 40.9219 40.5781 39.3125" id="DejaVuSans-33"/>
      </defs>
      <g transform="translate(24.141875 223.938714286)scale(0.12 -0.12)">
       <use xlink:href="#DejaVuSans-33"/>
       <use x="63.623046875" xlink:href="#DejaVuSans-30"/>
       <use x="127.24609375" xlink:href="#DejaVuSans-30"/>
       <use x="190.869140625" xlink:href="#DejaVuSans-30"/>
      </g>
     </g>
    </g>
    <g id="ytick_5">
     <g id="line2d_24">
      <g>
       <use style="stroke:#000000;stroke-width:0.5;" x="56.97" xlink:href="#md7965d1ba0" y="171.256035714"/>
      </g>
     </g>
     <g id="line2d_25">
      <g>
       <use style="stroke:#000000;stroke-width:0.5;" x="503.37" xlink:href="#md9a1c1a7cd" y="171.256035714"/>
      </g>
     </g>
     <g id="text_12">
      <!-- 4000 -->
      <g transform="translate(23.81375 174.567285714)scale(0.12 -0.12)">
       <use xlink:href="#DejaVuSans-34"/>
       <use x="63.623046875" xlink:href="#DejaVuSans-30"/>
       <use x="127.24609375" xlink:href="#DejaVuSans-30"/>
       <use x="190.869140625" xlink:href="#DejaVuSans-30"/>
      </g>
     </g>
    </g>
    <g id="ytick_6">
     <g id="line2d_26">
      <g>
       <use style="stroke:#000000;stroke-width:0.5;" x="56.97" xlink:href="#md7965d1ba0" y="121.884607143"/>
      </g>
     </g>
     <g id="line2d_27">
      <g>
       <use style="stroke:#000000;stroke-width:0.5;" x="503.37" xlink:href="#md9a1c1a7cd" y="121.884607143"/>
      </g>
     </g>
     <g id="text_13">
      <!-- 5000 -->
      <defs>
       <path d="
M10.7969 72.9062
L49.5156 72.9062
L49.5156 64.5938
L19.8281 64.5938
L19.8281 46.7344
Q21.9688 47.4688 24.1094 47.8281
Q26.2656 48.1875 28.4219 48.1875
Q40.625 48.1875 47.75 41.5
Q54.8906 34.8125 54.8906 23.3906
Q54.8906 11.625 47.5625 5.09375
Q40.2344 -1.42188 26.9062 -1.42188
Q22.3125 -1.42188 17.5469 -0.640625
Q12.7969 0.140625 7.71875 1.70312
L7.71875 11.625
Q12.1094 9.23438 16.7969 8.0625
Q21.4844 6.89062 26.7031 6.89062
Q35.1562 6.89062 40.0781 11.3281
Q45.0156 15.7656 45.0156 23.3906
Q45.0156 31 40.0781 35.4375
Q35.1562 39.8906 26.7031 39.8906
Q22.75 39.8906 18.8125 39.0156
Q14.8906 38.1406 10.7969 36.2812
z
" id="DejaVuSans-35"/>
      </defs>
      <g transform="translate(24.153125 125.195857143)scale(0.12 -0.12)">
       <use xlink:href="#DejaVuSans-35"/>
       <use x="63.623046875" xlink:href="#DejaVuSans-30"/>
       <use x="127.24609375" xlink:href="#DejaVuSans-30"/>
       <use x="190.869140625" xlink:href="#DejaVuSans-30"/>
      </g>
     </g>
    </g>
    <g id="ytick_7">
     <g id="line2d_28">
      <g>
       <use style="stroke:#000000;stroke-width:0.5;" x="56.97" xlink:href="#md7965d1ba0" y="72.5131785714"/>
      </g>
     </g>
     <g id="line2d_29">
      <g>
       <use style="stroke:#000000;stroke-width:0.5;" x="503.37" xlink:href="#md9a1c1a7cd" y="72.5131785714"/>
      </g>
     </g>
     <g id="text_14">
      <!-- 6000 -->
      <g transform="translate(24.065 75.8244285714)scale(0.12 -0.12)">
       <use xlink:href="#DejaVuSans-36"/>
       <use x="63.623046875" xlink:href="#DejaVuSans-30"/>
       <use x="127.24609375" xlink:href="#DejaVuSans-30"/>
       <use x="190.869140625" xlink:href="#DejaVuSans-30"/>
      </g>
     </g>
    </g>
    <g id="ytick_8">
     <g id="line2d_30">
      <g>
       <use style="stroke:#000000;stroke-width:0.5;" x="56.97" xlink:href="#md7965d1ba0" y="23.14175"/>
      </g>
     </g>
     <g id="line2d_31">
      <g>
       <use style="stroke:#000000;stroke-width:0.5;" x="503.37" xlink:href="#md9a1c1a7cd" y="23.14175"/>
      </g>
     </g>
     <g id="text_15">
      <!-- 7000 -->
      <defs>
       <path d="
M8.20312 72.9062
L55.0781 72.9062
L55.0781 68.7031
L28.6094 0
L18.3125 0
L43.2188 64.5938
L8.20312 64.5938
z
" id="DejaVuSans-37"/>
      </defs>
      <g transform="translate(24.21125 26.453)scale(0.12 -0.12)">
       <use xlink:href="#DejaVuSans-37"/>
       <use x="63.623046875" xlink:href="#DejaVuSans-30"/>
       <use x="127.24609375" xlink:href="#DejaVuSans-30"/>
       <use x="190.869140625" xlink:href="#DejaVuSans-30"/>
      </g>
     </g>
    </g>
    <g id="text_16">
     <!-- number of wins -->
     <defs>
      <path d="
M4.20312 54.6875
L13.1875 54.6875
L24.4219 12.0156
L35.5938 54.6875
L46.1875 54.6875
L57.4219 12.0156
L68.6094 54.6875
L77.5938 54.6875
L63.2812 0
L52.6875 0
L40.9219 44.8281
L29.1094 0
L18.5 0
z
" id="DejaVuSans-77"/>
      <path d="
M9.42188 54.6875
L18.4062 54.6875
L18.4062 0
L9.42188 0
z

M9.42188 75.9844
L18.4062 75.9844
L18.4062 64.5938
L9.42188 64.5938
z
" id="DejaVuSans-69"/>
     </defs>
     <g transform="translate(16.318125 242.1651875)rotate(-90.0)scale(0.12 -0.12)">
      <use xlink:href="#DejaVuSans-6e"/>
      <use x="63.37890625" xlink:href="#DejaVuSans-75"/>
      <use x="126.7578125" xlink:href="#DejaVuSans-6d"/>
      <use x="224.169921875" xlink:href="#DejaVuSans-62"/>
      <use x="287.646484375" xlink:href="#DejaVuSans-65"/>
      <use x="349.169921875" xlink:href="#DejaVuSans-72"/>
      <use x="390.283203125" xlink:href="#DejaVuSans-20"/>
      <use x="422.0703125" xlink:href="#DejaVuSans-6f"/>
      <use x="483.251953125" xlink:href="#DejaVuSans-66"/>
      <use x="518.45703125" xlink:href="#DejaVuSans-20"/>
      <use x="550.244140625" xlink:href="#DejaVuSans-77"/>
      <use x="632.03125" xlink:href="#DejaVuSans-69"/>
      <use x="659.814453125" xlink:href="#DejaVuSans-6e"/>
      <use x="723.193359375" xlink:href="#DejaVuSans-73"/>
     </g>
    </g>
   </g>
   <g id="text_17">
    <!-- marek -->
    <defs>
     <path d="
M9.07812 75.9844
L18.1094 75.9844
L18.1094 31.1094
L44.9219 54.6875
L56.3906 54.6875
L27.3906 29.1094
L57.625 0
L45.9062 0
L18.1094 26.7031
L18.1094 0
L9.07812 0
z
" id="DejaVuSans-6b"/>
    </defs>
    <g style="fill:#800080;" transform="translate(507.834 55.1838071429)scale(0.12 -0.12)">
     <use xlink:href="#DejaVuSans-6d"/>
     <use x="97.412109375" xlink:href="#DejaVuSans-61"/>
     <use x="158.69140625" xlink:href="#DejaVuSans-72"/>
     <use x="197.5546875" xlink:href="#DejaVuSans-65"/>
     <use x="259.078125" xlink:href="#DejaVuSans-6b"/>
    </g>
   </g>
   <g id="text_18">
    <!-- matus -->
    <defs>
     <path d="
M18.3125 70.2188
L18.3125 54.6875
L36.8125 54.6875
L36.8125 47.7031
L18.3125 47.7031
L18.3125 18.0156
Q18.3125 11.3281 20.1406 9.42188
Q21.9688 7.51562 27.5938 7.51562
L36.8125 7.51562
L36.8125 0
L27.5938 0
Q17.1875 0 13.2344 3.875
Q9.28125 7.76562 9.28125 18.0156
L9.28125 47.7031
L2.6875 47.7031
L2.6875 54.6875
L9.28125 54.6875
L9.28125 70.2188
z
" id="DejaVuSans-74"/>
    </defs>
    <g style="fill:#ffa500;" transform="translate(507.834 355.510207143)scale(0.12 -0.12)">
     <use xlink:href="#DejaVuSans-6d"/>
     <use x="97.412109375" xlink:href="#DejaVuSans-61"/>
     <use x="158.69140625" xlink:href="#DejaVuSans-74"/>
     <use x="197.900390625" xlink:href="#DejaVuSans-75"/>
     <use x="261.279296875" xlink:href="#DejaVuSans-73"/>
    </g>
   </g>
   <g id="text_19">
    <!-- nukeman -->
    <g style="fill:#ff0000;" transform="translate(507.834 201.81695)scale(0.12 -0.12)">
     <use xlink:href="#DejaVuSans-6e"/>
     <use x="63.37890625" xlink:href="#DejaVuSans-75"/>
     <use x="126.7578125" xlink:href="#DejaVuSans-6b"/>
     <use x="181.04296875" xlink:href="#DejaVuSans-65"/>
     <use x="242.56640625" xlink:href="#DejaVuSans-6d"/>
     <use x="339.978515625" xlink:href="#DejaVuSans-61"/>
     <use x="401.2578125" xlink:href="#DejaVuSans-6e"/>
    </g>
   </g>
   <g id="text_20">
    <!-- 2017-06-01 -->
    <defs>
     <path d="
M4.89062 31.3906
L31.2031 31.3906
L31.2031 23.3906
L4.89062 23.3906
z
" id="DejaVuSans-2d"/>
    </defs>
    <g transform="translate(239.51925 18.14175)scale(0.144 -0.144)">
     <use xlink:href="#DejaVuSans-32"/>
     <use x="63.623046875" xlink:href="#DejaVuSans-30"/>
     <use x="127.24609375" xlink:href="#DejaVuSans-31"/>
     <use x="190.869140625" xlink:href="#DejaVuSans-37"/>
     <use x="254.4921875" xlink:href="#DejaVuSans-2d"/>
     <use x="290.576171875" xlink:href="#DejaVuSans-30"/>
     <use x="354.19921875" xlink:href="#DejaVuSans-36"/>
     <use x="417.822265625" xlink:href="#DejaVuSans-2d"/>
     <use x="453.90625" xlink:href="#DejaVuSans-30"/>
     <use x="517.529296875" xlink:href="#DejaVuSans-31"/>
    </g>
   </g>
  </g>
 </g>
 <defs>
  <clipPath id="p5c957dd754">
   <rect height="345.6" width="446.4" x="56.97" y="23.14175"/>
  </clipPath>
 </defs>
</svg>
